<svg xmlns="http://www.w3.org/2000/svg" version="1.1" xmlns:xlink="http://www.w3.org/1999/xlink"
    xmlns:svgjs="http://svgjs.dev/svgjs" viewBox="0 0 800 800" opacity="0.56">
    <defs>
        <filter id="bbburst-blur-1" x="-100%" y="-100%" width="400%" height="400%">
            <feGaussianBlur in="SourceGraphic" stdDeviation="1"></feGaussianBlur>
        </filter>
        <filter id="bbburst-blur-2" x="-100%" y="-100%" width="400%" height="400%">
            <feGaussianBlur in="SourceGraphic" stdDeviation="2"></feGaussianBlur>
        </filter>
        <filter id="bbburst-blur-3" x="-100%" y="-100%" width="400%" height="400%">
            <feGaussianBlur in="SourceGraphic" stdDeviation="4"></feGaussianBlur>
        </filter>
        <filter id="bbburst-blur-4" x="-100%" y="-100%" width="400%" height="400%">
            <feGaussianBlur in="SourceGraphic" stdDeviation="12"></feGaussianBlur>
        </filter>
        <symbol id="bbburst-shape-1" viewBox="0 0 194 167">
            <path d="m97 0 96.129 166.5H.871L97 0Z"></path>
        </symbol>
        <symbol id="bbburst-shape-2" viewBox="0 0 126 115">
            <path d="m63 0 62.77 43.877-23.976 70.996H24.206L.23 43.877 63 0Z"></path>
        </symbol>
        <symbol id="bbburst-shape-3" viewBox="0 0 131 127">
            <path d="m66 0 66 63.5L66 127 0 63.5 66 0Z"></path>
        </symbol>
        <symbol id="bbburst-shape-4" viewBox="0 0 149 143">
            <path
                d="M71.647 2.781c.898-2.764 4.808-2.764 5.706 0l15.445 47.534a3 3 0 0 0 2.853 2.073h49.98c2.906 0 4.115 3.719 1.764 5.427L106.96 87.193a2.999 2.999 0 0 0-1.09 3.354l15.445 47.534c.898 2.764-2.266 5.062-4.617 3.354l-40.435-29.378a3 3 0 0 0-3.526 0l-40.435 29.378c-2.351 1.708-5.515-.59-4.617-3.354L43.13 90.547a3 3 0 0 0-1.09-3.354L1.605 57.815c-2.35-1.708-1.142-5.427 1.764-5.427h49.98a3 3 0 0 0 2.853-2.073L71.647 2.781Z">
            </path>
        </symbol>
        <symbol id="bbburst-shape-5" viewBox="0 0 145 145">
            <circle cx="72.5" cy="72.5" r="72.5"></circle>
        </symbol>
        <symbol id="bbburst-shape-6" viewBox="0 0 133 116">
            <path
                d="M59.7487 10.2513c-13.6683-13.66839-35.8291-13.66839-49.4974 0-13.66839 13.6683-13.66839 35.8291 0 49.4974l49.4974-49.4974ZM66.5 66.5 41.7513 91.2487 66.5 115.997l24.7487-24.7483L66.5 66.5Zm56.249-6.7513c13.668-13.6683 13.668-35.8291 0-49.4974-13.669-13.66839-35.8294-13.66839-49.4977 0l49.4977 49.4974Zm-112.4977 0 31.5 31.5 49.4974-49.4974-31.5-31.5-49.4974 49.4974Zm80.9974 31.5 31.5003-31.5-49.4977-49.4974-31.5 31.5 49.4974 49.4974Z">
            </path>
        </symbol>
        <symbol id="bbburst-shape-7" viewBox="0 0 139 124">
            <path fill-rule="evenodd" clip-rule="evenodd"
                d="M70.1641 15.0917C54.6093.764854 37.8293-2.10782 24.4032 2.82615 10.3804 7.97941.763366 21.4591 1.00047 37.0608c.1068 7.0273 2.86132 13.7317 7.0039 20.2001C12.1442 63.7249 17.853 70.2322 24.25 76.9024c3.8209 3.9842 7.8871 8.0312 12.0767 12.201h.0001c10.0335 9.9862 20.7748 20.6766 30.5497 32.8956 1.38 1.725 3.8972 2.005 5.6223.624.6706-.536 1.1228-1.244 1.3439-2.011 9.5768-11.748 20.0328-22.0735 29.8163-31.7351 4.19-4.1373 8.256-8.1528 12.078-12.1062 6.396-6.6176 12.106-13.0752 16.247-19.4911 4.144-6.4196 6.905-13.0811 7.012-20.0691.237-15.5124-9.399-28.8902-23.411-33.99923-13.32-4.85681-29.9542-2.08621-45.4209 11.88043Zm-3.7351 7.4919C52.1278 8.44857 37.6826 6.46918 27.1626 10.3352 16.2859 14.3323 8.8148 24.7824 8.99955 36.9392c.07575 4.9844 2.03755 10.2234 5.74165 16.0072 3.707 5.7881 8.9752 11.8418 15.2827 18.4187 3.5798 3.7328 7.4978 7.6329 11.6 11.7163 9.0476 9.0063 18.9911 18.9046 28.1786 29.8666 9.2999-11.068 19.4036-21.0473 28.5839-30.1144l.0007-.0006c4.1019-4.0508 8.0189-7.9196 11.5979-11.6222 6.307-6.5252 11.573-12.5298 15.278-18.2697 3.703-5.7362 5.658-10.924 5.734-15.8531.184-12.0276-7.267-22.3914-18.153-26.3608-10.71-3.90518-25.4722-1.80041-40.0023 12.867-1.5547 1.5694-4.0874 1.5813-5.6568.0265-.3146-.3116-.5666-.6625-.7559-1.0371Z">
            </path>
        </symbol>
        <symbol id="bbburst-shape-8" viewBox="0 0 87 168">
            <path
                d="m12 12 31.2546 18.0749c16.4102 9.4902 20.014 31.6325 7.4603 45.8369L36.3296 92.1884c-12.5684 14.2206-8.9394 36.3916 7.5068 45.8636L75 156"
                stroke-width="14" stroke-linecap="round" stroke-linejoin="round"></path>
        </symbol>
        <symbol id="bbburst-shape-9" viewBox="0 0 182 172">
            <path d="M13.5809 69.845 91 13.5967l77.419 56.2483-29.571 91.012H43.1524L13.5809 69.845Z" stroke-width="22">
            </path>
        </symbol>
        <symbol id="bbburst-shape-10" viewBox="0 0 145 145">
            <circle cx="72.5" cy="72.5" r="61.5" fill="none" stroke-width="22"></circle>
        </symbol>
        <symbol id="bbburst-shape-11" viewBox="0 0 194 167">
            <path d="M10.398 161 97 11l86.603 150H10.397Z" stroke-width="11"></path>
        </symbol>
        <symbol id="bbburst-shape-12" viewBox="0 0 170 151">
            <path
                d="M69.3728 54.2122 85 10.0031l15.627 44.2091c1.413 3.9958 5.19 6.6672 9.428 6.6673h49.312l-39.149 26.1447c-3.803 2.5401-5.399 7.3367-3.875 11.6488l15.179 42.94-40.9683-27.36c-3.3621-2.245-7.7453-2.245-11.1074 0l-40.9682 27.36 15.1785-42.94c1.5243-4.3121-.0712-9.1087-3.8746-11.6488L10.6333 60.8795h49.3112c4.2381-.0001 8.0159-2.6715 9.4283-6.6673Z"
                stroke-width="12"></path>
        </symbol>
        <symbol id="bbburst-shape-13" viewBox="0 0 159 159">
            <path stroke-width="22" d="M11 11h137v137H11z"></path>
        </symbol>
        <symbol id="bbburst-shape-14" viewBox="0 0 185 109">
            <path d="M168 16.5C168 58.1975 134.197 92 92.5 92 50.8025 92 17 58.1975 17 16.5" stroke-width="33"
                stroke-linecap="round"></path>
        </symbol>
    </defs>
    <use xlink:href="#bbburst-shape-7" width="15.06939034831493" opacity="0.6697516465255999"
        transform="matrix(0.7670006717664596,0.6416462962643824,-0.6416462962643824,0.7670006717664596,543.708376688197,191.3219166386309)"
        fill="#2c2891" filter="url(#bbburst-blur-1)"></use>
    <use xlink:href="#bbburst-shape-2" width="5.989096703912802" opacity="0.9121254233154091"
        transform="matrix(0.967328931585083,-0.2535246302008185,0.2535246302008185,0.967328931585083,256.15792957008944,14.589816905860289)"
        fill="#ff5c58"></use>
    <use xlink:href="#bbburst-shape-5" width="5.926955082523169" opacity="0.8798793463194148"
        transform="matrix(0.8537100447213563,0.5207486529429144,-0.5207486529429144,0.8537100447213563,612.9786959333983,110.54414863037192)"
        fill="#2c2891"></use>
    <use xlink:href="#bbburst-shape-14" width="13.179080854640194" opacity="0.6280015953143281"
        transform="matrix(0.9166298622614337,-0.399737033073726,0.399737033073726,0.9166298622614337,384.95273182178465,-36.51058829927109)"
        fill="none" stroke="#ff5c58" filter="url(#bbburst-blur-1)"></use>
    <use xlink:href="#bbburst-shape-7" width="30.78444032179159" opacity="0.24484390252616128"
        transform="matrix(1.2141520720085126,0.2972116182746489,-0.2972116182746489,1.2141520720085126,407.9661041548532,-417.38242863906015)"
        fill="#2c2891" filter="url(#bbburst-blur-3)"></use>
    <use xlink:href="#bbburst-shape-3" width="30.519607737038935" opacity="0.0945136954543927"
        transform="matrix(1.2890663716821331,1.1835573029635116,-1.1835573029635116,1.2890663716821331,1158.2153355193286,-404.456911494357)"
        fill="#ff5c58" filter="url(#bbburst-blur-4)"></use>
    <use xlink:href="#bbburst-shape-14" width="26.12937549120493" opacity="0.14656878920401606"
        transform="matrix(1.2479352855211086,-0.07181589762266753,0.07181589762266753,1.2479352855211086,725.441327361761,3.0134918536782607)"
        fill="none" stroke="#ff5c58" filter="url(#bbburst-blur-3)"></use>
    <use xlink:href="#bbburst-shape-9" width="13.553804789314698" opacity="0.694662924759767"
        transform="matrix(0.9991042265489808,-0.04231718908390476,0.04231718908390476,0.9991042265489808,318.4149870216793,125.16812382240857)"
        fill="none" stroke="#2c2891" filter="url(#bbburst-blur-1)"></use>
    <use xlink:href="#bbburst-shape-3" width="24.791143183611943" opacity="0.3159405784408097"
        transform="matrix(0.9827412432874604,-0.7724763095019915,0.7724763095019915,0.9827412432874604,34.536056641031394,321.18897151204214)"
        fill="#2c2891" filter="url(#bbburst-blur-3)"></use>
    <use xlink:href="#bbburst-shape-10" width="38.46667596872381" opacity="-0.006094445222850853"
        transform="matrix(1.7484327733013458,0.07404618319511715,-0.07404618319511715,1.7484327733013458,670.7059482637083,-660.6681561280523)"
        fill="none" stroke="#ffbd9b" filter="url(#bbburst-blur-4)"></use>
    <use xlink:href="#bbburst-shape-14" width="5.170079157833723" opacity="0.8645562487784996"
        transform="matrix(0.7907060839059187,-0.612195956270675,0.612195956270675,0.7907060839059187,142.65754652077268,145.35725696030158)"
        fill="none" stroke="#ff5c58"></use>
    <use xlink:href="#bbburst-shape-9" width="7.722721872017589" opacity="0.8935302516063888"
        transform="matrix(0.9809780195997791,0.19411884262506646,-0.19411884262506646,0.9809780195997791,512.8490482422212,-21.05065003147655)"
        fill="none" stroke="#ffa6d5"></use>
    <use xlink:href="#bbburst-shape-6" width="6.817187582407069" opacity="0.8590748144718058"
        transform="matrix(0.8335873202881563,0.5523877075522325,-0.5523877075522325,0.8335873202881563,555.2744313152316,56.146445452276566)"
        fill="#ffa6d5"></use>
    <use xlink:href="#bbburst-shape-6" width="5.259308345878936" opacity="0.9793970291285404"
        transform="matrix(0.9885717627583059,0.1507510194888768,-0.1507510194888768,0.9885717627583059,453.83694390832926,12.60274691139557)"
        fill="#2c2891"></use>
    <use xlink:href="#bbburst-shape-12" width="37.13173522459478" opacity="0.00729195422456963"
        transform="matrix(1.549533315880719,0.8132936142474646,-0.8132936142474646,1.549533315880719,1044.1068922974605,45.69461439982297)"
        fill="none" stroke="#ff5c58" filter="url(#bbburst-blur-4)"></use>
    <use xlink:href="#bbburst-shape-3" width="32.888724985894676" opacity="-0.11077442533758908"
        transform="matrix(1.707533713042116,0.3831822266554184,-0.3831822266554184,1.707533713042116,886.0278966717499,-635.0394936762505)"
        fill="#ffa6d5" filter="url(#bbburst-blur-4)"></use>
    <use xlink:href="#bbburst-shape-9" width="26.151875655134106" opacity="0.4697724576344704"
        transform="matrix(0.8722857444415314,-0.4889965031000563,0.4889965031000563,0.8722857444415314,34.83352280873288,236.05254018922034)"
        fill="none" stroke="#2c2891" filter="url(#bbburst-blur-2)"></use>
    <use xlink:href="#bbburst-shape-2" width="34.91009621318996" opacity="-0.002635919347823812"
        transform="matrix(1.4007487010676738,-1.0490009897312893,1.0490009897312893,1.4007487010676738,-309.3659635377919,-506.88485222713126)"
        fill="#00a19d" filter="url(#bbburst-blur-4)"></use>
    <use xlink:href="#bbburst-shape-10" width="24.052715154493846" opacity="0.3464916106965301"
        transform="matrix(0.9803815790538573,0.19710900398476347,-0.19710900398476347,0.9803815790538573,629.6785274421126,-239.54420519499038)"
        fill="none" stroke="#00a19d" filter="url(#bbburst-blur-2)"></use>
    <use xlink:href="#bbburst-shape-7" width="6.336505048246433" opacity="0.9032739856866265"
        transform="matrix(0.993085827351209,0.11739054269473662,-0.11739054269473662,0.993085827351209,403.35668394041556,18.51099432379641)"
        fill="#ffa6d5"></use>
    <use xlink:href="#bbburst-shape-10" width="29.276850762780114" opacity="0.4048937624007434"
        transform="matrix(0.97424965004613,0.2254719924624636,-0.2254719924624636,0.97424965004613,298.12147795174616,-193.25215598821424)"
        fill="none" stroke="#2c2891" filter="url(#bbburst-blur-2)"></use>
    <use xlink:href="#bbburst-shape-10" width="22.36573475790802" opacity="0.07339156545636183"
        transform="matrix(1.4871660874347328,0.9224082764069654,-0.9224082764069654,1.4871660874347328,1119.2778795541976,-7.14554107029835)"
        fill="none" stroke="#ff5c58" filter="url(#bbburst-blur-4)"></use>
    <use xlink:href="#bbburst-shape-6" width="13.170558679320633" opacity="0.6306743541248047"
        transform="matrix(0.9786919033192225,-0.2053342601160302,0.2053342601160302,0.9786919033192225,192.68474327752688,-106.41248560133624)"
        fill="#2c2891" filter="url(#bbburst-blur-1)"></use>
    <use xlink:href="#bbburst-shape-5" width="17.731316657999145" opacity="0.5391055003431926"
        transform="matrix(0.7250774079846042,0.6886673743036821,-0.6886673743036821,0.7250774079846042,834.1392843076383,-21.665700787018466)"
        fill="#ffa6d5" filter="url(#bbburst-blur-2)"></use>
    <use xlink:href="#bbburst-shape-6" width="29.903971862141567" opacity="0.35432241067857273"
        transform="matrix(0.9669024922733924,0.25514617464407,-0.25514617464407,0.9669024922733924,709.8923804778224,196.5308102086201)"
        fill="#ffa6d5" filter="url(#bbburst-blur-2)"></use>
    <use xlink:href="#bbburst-shape-14" width="18.56914907571298" opacity="0.4506278921072697"
        transform="matrix(0.8414484264926368,0.5403374367495423,-0.5403374367495423,0.8414484264926368,846.2363846300319,125.55916358532755)"
        fill="none" stroke="#2c2891" filter="url(#bbburst-blur-2)"></use>
    <use xlink:href="#bbburst-shape-5" width="11.291048153047349" opacity="0.7453710251032695"
        transform="matrix(0.7467206956885247,0.6651377320754294,-0.6651377320754294,0.7467206956885247,740.9339028878057,180.4623267890479)"
        fill="#ffa6d5" filter="url(#bbburst-blur-1)"></use>
    <use xlink:href="#bbburst-shape-2" width="23.50446041758668" opacity="0.5013257057142195"
        transform="matrix(0.9635451769667903,-0.2675456819760631,0.2675456819760631,0.9635451769667903,67.67194470184278,-49.831282139486916)"
        fill="#2c2891" filter="url(#bbburst-blur-2)"></use>
    <use xlink:href="#bbburst-shape-9" width="12.846538132879555" opacity="0.7036987838041348"
        transform="matrix(0.9996743207115969,-0.025519649484411287,0.025519649484411287,0.9996743207115969,404.7230419341136,131.82207537946573)"
        fill="none" stroke="#2c2891" filter="url(#bbburst-blur-1)"></use>
    <use xlink:href="#bbburst-shape-7" width="28.737365971366607" opacity="0.26865374525790775"
        transform="matrix(1.0862481472811303,-0.6185183607042816,0.6185183607042816,1.0862481472811303,172.21393011665413,-352.7606569379317)"
        fill="#ffa6d5" filter="url(#bbburst-blur-3)"></use>
    <use xlink:href="#bbburst-shape-12" width="40.91417523737027" opacity="0.010155374451262356"
        transform="matrix(1.3195361832458967,1.149488695509813,-1.149488695509813,1.3195361832458967,569.1789709808688,207.55176721327075)"
        fill="none" stroke="#ffa6d5" filter="url(#bbburst-blur-4)"></use>
    <use xlink:href="#bbburst-shape-5" width="24.374192343918732" opacity="0.42518110518940266"
        transform="matrix(0.9954188307768114,-0.09561041436436618,0.09561041436436618,0.9954188307768114,588.2356893531899,-96.87286285663282)"
        fill="#ff5c58" filter="url(#bbburst-blur-2)"></use>
    <use xlink:href="#bbburst-shape-4" width="24.75320890337518" opacity="0.23388574804973583"
        transform="matrix(1.1205203115981155,-0.5540164539939786,0.5540164539939786,1.1205203115981155,460.4379061373937,-218.23437305533616)"
        fill="#2c2891" filter="url(#bbburst-blur-3)"></use>
    <use xlink:href="#bbburst-shape-7" width="21.50112303596362" opacity="0.5279044337018095"
        transform="matrix(0.9999995318625053,-0.0009676129237747192,0.0009676129237747192,0.9999995318625053,282.37558237743986,183.87580761896606)"
        fill="#ff5c58" filter="url(#bbburst-blur-2)"></use>
    <use xlink:href="#bbburst-shape-13" width="27.93620552027067" opacity="0.16138707251075002"
        transform="matrix(1.0769208300639737,0.6346191974517648,-0.6346191974517648,1.0769208300639737,716.3689571410895,329.6860252992216)"
        fill="none" stroke="#2c2891" filter="url(#bbburst-blur-3)"></use>
    <use xlink:href="#bbburst-shape-6" width="24.80309401567839" opacity="0.21733677682457986"
        transform="matrix(1.0199288727777218,-0.7226652713908188,0.7226652713908188,1.0199288727777218,416.46506973694113,152.00560247096473)"
        fill="#ffa6d5" filter="url(#bbburst-blur-3)"></use>
    <use xlink:href="#bbburst-shape-5" width="11.59333084475876" opacity="0.7297451021149257"
        transform="matrix(0.9237156292882468,-0.38307889031975934,0.38307889031975934,0.9237156292882468,166.06575545722518,-62.7265602334283)"
        fill="#00a19d" filter="url(#bbburst-blur-1)"></use>
    <use xlink:href="#bbburst-shape-9" width="26.722722566383037" opacity="0.3014077954604546"
        transform="matrix(1.2420976784519482,0.1403330224297924,-0.1403330224297924,1.2420976784519482,737.0894667811574,-200.44615885068993)"
        fill="none" stroke="#00a19d" filter="url(#bbburst-blur-3)"></use>
    <use xlink:href="#bbburst-shape-3" width="31.173078284631025" opacity="0.05799722075435931"
        transform="matrix(1.724555944961733,0.2973327978833558,-0.2973327978833558,1.724555944961733,126.069432813665,-80.25332750401924)"
        fill="#00a19d" filter="url(#bbburst-blur-4)"></use>
    <use xlink:href="#bbburst-shape-7" width="6.8699416943888885" opacity="0.8758938822945923"
        transform="matrix(0.99998305196435,-0.005822008593612403,0.005822008593612403,0.99998305196435,338.6248496969032,5.417191610327166)"
        fill="#ffbd9b"></use>
    <use xlink:href="#bbburst-shape-5" width="15.224485047584242" opacity="0.6272895565977465"
        transform="matrix(0.8547162597745445,0.5190954779970767,-0.5190954779970767,0.8547162597745445,622.155042062279,-112.23487586071877)"
        fill="#ffa6d5" filter="url(#bbburst-blur-1)"></use>
    <use xlink:href="#bbburst-shape-9" width="5.399303433002629" opacity="0.974584049084007"
        transform="matrix(0.9600440556486417,0.27984890783011407,-0.27984890783011407,0.9600440556486417,498.5526947231609,11.442924775509255)"
        fill="none" stroke="#ffbd9b"></use>
    <use xlink:href="#bbburst-shape-8" width="10.161454537840552" opacity="0.6824534457419903"
        transform="matrix(0.9858849216805066,-0.1674243745785587,0.1674243745785587,0.9858849216805066,403.69644691932643,127.70934409065086)"
        fill="none" stroke="#ff5c58" filter="url(#bbburst-blur-1)"></use>
    <use xlink:href="#bbburst-shape-13" width="4.8896761000929265" opacity="0.9632877337957453"
        transform="matrix(0.8375080515599104,0.5464249843961406,-0.5464249843961406,0.8375080515599104,613.2691181797695,47.46383338051896)"
        fill="none" stroke="#ffbd9b"></use>
    <use xlink:href="#bbburst-shape-10" width="23.065315253702455" opacity="0.3449651568852956"
        transform="matrix(0.9948779038626271,-0.10108390774947934,0.10108390774947934,0.9948779038626271,329.9413244610492,-290.99166324327246)"
        fill="none" stroke="#2c2891" filter="url(#bbburst-blur-2)"></use>
    <use xlink:href="#bbburst-shape-10" width="25.44150462230579" opacity="0.5032948328774862"
        transform="matrix(0.893993137910439,-0.44808065051846063,0.44808065051846063,0.893993137910439,-10.171710889979096,89.93859685290505)"
        fill="none" stroke="#2c2891" filter="url(#bbburst-blur-2)"></use>
    <use xlink:href="#bbburst-shape-10" width="19.666588763382162" opacity="0.378488173949573"
        transform="matrix(0.972789039003969,-0.23169265330116656,0.23169265330116656,0.972789039003969,215.04263275005945,-254.00651083980517)"
        fill="none" stroke="#00a19d" filter="url(#bbburst-blur-2)"></use>
    <use xlink:href="#bbburst-shape-4" width="7.552346676234659" opacity="0.878448895069663"
        transform="matrix(0.9009976061434302,-0.4338240584889319,0.4338240584889319,0.9009976061434302,219.10204998416725,-13.308479438238692)"
        fill="#00a19d"></use>
    <use xlink:href="#bbburst-shape-9" width="4.649124284523593" opacity="0.9431627690598238"
        transform="matrix(0.7900918581588678,0.6129884629184039,-0.6129884629184039,0.7900918581588678,661.1903486477487,64.15900437893606)"
        fill="none" stroke="#00a19d"></use>
    <use xlink:href="#bbburst-shape-3" width="7.654283023141433" opacity="0.7775504647381689"
        transform="matrix(0.9992854488363796,-0.03779671604617793,0.03779671604617793,0.9992854488363796,292.8744426136785,47.86014901663225)"
        fill="#ff5c58" filter="url(#bbburst-blur-1)"></use>
    <use xlink:href="#bbburst-shape-10" width="22.788545078402002" opacity="0.379640123716978"
        transform="matrix(0.9389479251644093,0.3440592882476083,-0.3440592882476083,0.9389479251644093,805.439569677907,39.502788144784745)"
        fill="none" stroke="#ffbd9b" filter="url(#bbburst-blur-2)"></use>
    <use xlink:href="#bbburst-shape-8" width="20.720871495738205" opacity="0.4743308371133056"
        transform="matrix(0.9978060958290329,-0.06620419266498725,0.06620419266498725,0.9978060958290329,340.08753824857615,236.98467301194762)"
        fill="none" stroke="#ffbd9b" filter="url(#bbburst-blur-2)"></use>
    <use xlink:href="#bbburst-shape-7" width="9.611454481533087" opacity="0.7992712779571278"
        transform="matrix(0.9926981718599023,0.12062478843922522,-0.12062478843922522,0.9926981718599023,527.5875140010486,35.185679071465586)"
        fill="#ffbd9b"></use>
    <use xlink:href="#bbburst-shape-8" width="8.770626432755115" opacity="0.7628213192019975"
        transform="matrix(0.9902865200234539,-0.13904175006032402,0.13904175006032402,0.9902865200234539,345.64167684515934,111.07846920679788)"
        fill="none" stroke="#ffa6d5" filter="url(#bbburst-blur-1)"></use>
    <use xlink:href="#bbburst-shape-11" width="6.331705098312208" opacity="0.8841998618886804"
        transform="matrix(0.8229722233319627,-0.5680816135240129,0.5680816135240129,0.8229722233319627,140.78453086578625,115.61384979195378)"
        fill="none" stroke="#ffbd9b"></use>
    <use xlink:href="#bbburst-shape-4" width="26.940428544247542" opacity="0.3486633380260903"
        transform="matrix(0.8866205426765349,0.4624975819439132,-0.4624975819439132,0.8866205426765349,282.86426552747434,80.42046927217058)"
        fill="#00a19d" filter="url(#bbburst-blur-2)"></use>
    <use xlink:href="#bbburst-shape-6" width="8.305947758384361" opacity="0.8406964749040415"
        transform="matrix(0.9658345787300259,-0.2591593458268356,0.2591593458268356,0.9658345787300259,277.32384784902115,-55.35686254799077)"
        fill="#ffbd9b"></use>
    <use xlink:href="#bbburst-shape-5" width="7.009292573048746" opacity="0.886079118459258"
        transform="matrix(0.9325418292471909,-0.3610619568776295,0.3610619568776295,0.9325418292471909,301.9098653785701,15.302889574848507)"
        fill="#2c2891"></use>
    <use xlink:href="#bbburst-shape-4" width="21.060368255291625" opacity="0.346215722844585"
        transform="matrix(0.990659525016841,0.13635873823634162,-0.13635873823634162,0.990659525016841,537.9239964454235,-276.52499807801735)"
        fill="#ff5c58" filter="url(#bbburst-blur-2)"></use>
    <use xlink:href="#bbburst-shape-7" width="8.70037180394448" opacity="0.8507888526363823"
        transform="matrix(0.7732937537070564,0.6340479244328857,-0.6340479244328857,0.7732937537070564,709.9102050734604,57.12773371986083)"
        fill="#ffa6d5"></use>
    <use xlink:href="#bbburst-shape-5" width="13.386450689060418" opacity="0.7580973882959856"
        transform="matrix(0.987343541588555,0.1585961250578634,-0.1585961250578634,0.987343541588555,550.0724026035805,60.17494136645803)"
        fill="#2c2891" filter="url(#bbburst-blur-1)"></use>
    <use xlink:href="#bbburst-shape-5" width="28.186345676371257" opacity="0.08686247849278927"
        transform="matrix(1.621655313841556,0.6578252374981102,-0.6578252374981102,1.621655313841556,822.7781799223285,-626.0925421787158)"
        fill="#00a19d" filter="url(#bbburst-blur-4)"></use>
    <use xlink:href="#bbburst-shape-8" width="25.027714346890946" opacity="0.1611081642233878"
        transform="matrix(1.050895524820836,-0.6768445877094234,0.6768445877094234,1.050895524820836,56.66351949043582,360.9028144155904)"
        fill="none" stroke="#00a19d" filter="url(#bbburst-blur-3)"></use>
    <use xlink:href="#bbburst-shape-10" width="22.894121139440266" opacity="0.24065370173902056"
        transform="matrix(0.9087419513170252,0.8583053453850358,-0.8583053453850358,0.9087419513170252,618.6020283186576,348.694213205641)"
        fill="none" stroke="#2c2891" filter="url(#bbburst-blur-3)"></use>
    <use xlink:href="#bbburst-shape-13" width="28.252825963373336" opacity="0.1799813418578573"
        transform="matrix(1.246084736039563,-0.09885762797686513,0.09885762797686513,1.246084736039563,-25.405503497868644,-73.54386947764363)"
        fill="none" stroke="#2c2891" filter="url(#bbburst-blur-3)"></use>
    <use xlink:href="#bbburst-shape-8" width="28.45971182738164" opacity="0.37176415638567883"
        transform="matrix(0.9994386432158991,-0.033502215550057925,0.033502215550057925,0.9994386432158991,110.19674299590483,106.45635118785964)"
        fill="none" stroke="#00a19d" filter="url(#bbburst-blur-2)"></use>
    <use xlink:href="#bbburst-shape-3" width="5.976162979056825" opacity="0.9007920177592648"
        transform="matrix(0.9512929257622672,-0.30828845160768764,0.30828845160768764,0.9512929257622672,246.42364242125063,-14.837621644601882)"
        fill="#00a19d"></use>
    <use xlink:href="#bbburst-shape-10" width="5.230630527907729" opacity="0.9396880953491558"
        transform="matrix(0.9664526507256238,0.2568448440312075,-0.2568448440312075,0.9664526507256238,473.8511167189846,19.211674701305185)"
        fill="none" stroke="#ffa6d5"></use>
    <use xlink:href="#bbburst-shape-8" width="21.931578135887772" opacity="0.5018940128224232"
        transform="matrix(0.9881241417977213,-0.15365767275511097,0.15365767275511097,0.9881241417977213,257.2448466637796,219.22176161373983)"
        fill="none" stroke="#00a19d" filter="url(#bbburst-blur-2)"></use>
    <use xlink:href="#bbburst-shape-7" width="10.712535154518928" opacity="0.7928026218290836"
        transform="matrix(0.9484151064209657,-0.31703120652785644,0.31703120652785644,0.9484151064209657,207.39611643034027,-48.455675772996415)"
        fill="#00a19d"></use>
    <use xlink:href="#bbburst-shape-13" width="5.3146927515896465" opacity="0.9432251944840016"
        transform="matrix(0.9740696493539445,0.22624835514868097,-0.22624835514868097,0.9740696493539445,470.47577698555483,-8.90394355848565)"
        fill="none" stroke="#ff5c58"></use>
    <use xlink:href="#bbburst-shape-5" width="9.127762939699526" opacity="0.8260989512849166"
        transform="matrix(0.9450084678192641,-0.32704586184492085,0.32704586184492085,0.9450084678192641,310.1802998620119,87.2918937812367)"
        fill="#ffbd9b"></use>
    <use xlink:href="#bbburst-shape-8" width="25.571891294809056" opacity="0.16891186897207178"
        transform="matrix(1.0811778474159124,0.6273391923489988,-0.6273391923489988,1.0811778474159124,1010.9623505449186,-30.29302113676505)"
        fill="none" stroke="#2c2891" filter="url(#bbburst-blur-3)"></use>
    <use xlink:href="#bbburst-shape-4" width="7.209540191642491" opacity="0.8373937863358418"
        transform="matrix(0.9834817446214702,-0.181007342382317,0.181007342382317,0.9834817446214702,396.2205766657819,-4.820980383864423)"
        fill="#2c2891"></use>
    <use xlink:href="#bbburst-shape-4" width="25.359686820001592" opacity="0.4057646548634488"
        transform="matrix(0.9625652689521403,-0.27105000093542475,0.27105000093542475,0.9625652689521403,64.90421678684821,178.13771540973858)"
        fill="#ff5c58" filter="url(#bbburst-blur-2)"></use>
    <use xlink:href="#bbburst-shape-5" width="7.08550261414603" opacity="0.8631738163609667"
        transform="matrix(0.9691087198141742,0.24663391733525294,-0.24663391733525294,0.9691087198141742,469.17242436518336,-44.30788405675355)"
        fill="#ffa6d5"></use>
    <use xlink:href="#bbburst-shape-11" width="6.441358390156491" opacity="0.844165093242063"
        transform="matrix(0.9834683410908406,0.18108015372212938,-0.18108015372212938,0.9834683410908406,471.10753927826806,76.04970816219964)"
        fill="none" stroke="#ffbd9b"></use>
    <use xlink:href="#bbburst-shape-1" width="3.7102636767335504" opacity="0.9102137079645569"
        transform="matrix(0.935657074942868,-0.35291052422583874,0.35291052422583874,0.935657074942868,243.7991980559849,64.54752893027512)"
        fill="#ffa6d5"></use>
    <use xlink:href="#bbburst-shape-13" width="44.36165970782049" opacity="-0.10502938650773119"
        transform="matrix(1.4382037799811147,-0.9970305347621172,0.9970305347621172,1.4382037799811147,-389.3643206620917,-497.6078097313831)"
        fill="none" stroke="#2c2891" filter="url(#bbburst-blur-4)"></use>
    <use xlink:href="#bbburst-shape-5" width="14.987274840369583" opacity="0.6921210689506524"
        transform="matrix(0.9909684373864545,0.13409532469049273,-0.13409532469049273,0.9909684373864545,402.13981340643244,-128.74096945777933)"
        fill="#2c2891" filter="url(#bbburst-blur-1)"></use>
    <use xlink:href="#bbburst-shape-9" width="38.70982173109711" opacity="0.10124411274633172"
        transform="matrix(1.620510560595581,-0.6606402371928279,0.6606402371928279,1.620510560595581,-190.07509464843713,-513.2752327216015)"
        fill="none" stroke="#00a19d" filter="url(#bbburst-blur-4)"></use>
    <use xlink:href="#bbburst-shape-3" width="5.12484894296163" opacity="0.9596368246984007"
        transform="matrix(0.9966107563076311,-0.08226177977610076,0.08226177977610076,0.9966107563076311,368.94164674108885,19.185625686483718)"
        fill="#2c2891"></use>
    <use xlink:href="#bbburst-shape-3" width="23.495141202880696" opacity="0.5732676446422068"
        transform="matrix(0.8954133414649621,0.4452358340548874,-0.4452358340548874,0.8954133414649621,375.6827851041976,27.43311381210941)"
        fill="#ffa6d5" filter="url(#bbburst-blur-1)"></use>
    <use xlink:href="#bbburst-shape-12" width="12.99800083636898" opacity="0.7185465316410541"
        transform="matrix(0.9849872457932106,-0.17262712887812626,0.17262712887812626,0.9849872457932106,206.97575548823806,-40.00293041599309)"
        fill="none" stroke="#ffbd9b" filter="url(#bbburst-blur-1)"></use>
    <use xlink:href="#bbburst-shape-13" width="9.034508225114516" opacity="0.8050235779004723"
        transform="matrix(0.8473711797904032,0.5310010203950838,-0.5310010203950838,0.8473711797904032,541.7295214493679,115.48772004404236)"
        fill="none" stroke="#ffa6d5"></use>
    <use xlink:href="#bbburst-shape-4" width="35.598291278192804" opacity="-0.10227837621107128"
        transform="matrix(1.6345828004114553,0.6250112547778991,-0.6250112547778991,1.6345828004114553,261.98703684920724,77.4832489129144)"
        fill="#ff5c58" filter="url(#bbburst-blur-4)"></use>
    <use xlink:href="#bbburst-shape-13" width="9.924032190839942" opacity="0.7895537469907606"
        transform="matrix(0.9870522354426635,-0.16039914123099533,0.16039914123099533,0.9870522354426635,423.59379850382317,-13.620782007511025)"
        fill="none" stroke="#2c2891"></use>
    <use xlink:href="#bbburst-shape-6" width="25.61042215742177" opacity="0.03719844388671789"
        transform="matrix(1.667214069123138,0.5318808585744251,-0.5318808585744251,1.667214069123138,958.4118335421975,-503.9555824777178)"
        fill="#2c2891" filter="url(#bbburst-blur-4)"></use>
    <use xlink:href="#bbburst-shape-6" width="17.844412029318132" opacity="0.6209629137625448"
        transform="matrix(0.765519832381382,0.6434122987873179,-0.6434122987873179,0.765519832381382,550.9597017021529,226.5355750361132)"
        fill="#ffa6d5" filter="url(#bbburst-blur-1)"></use>
    <use xlink:href="#bbburst-shape-7" width="31.760545297647887" opacity="0.1532609498040851"
        transform="matrix(1.1569615827730182,-0.4732228819355133,0.4732228819355133,1.1569615827730182,-174.78320418813547,-157.73729603413454)"
        fill="#ffa6d5" filter="url(#bbburst-blur-3)"></use>
    <use xlink:href="#bbburst-shape-2" width="9.725166176926024" opacity="0.8071122237370283"
        transform="matrix(0.9906190126768354,-0.1366527413672035,0.1366527413672035,0.9906190126768354,374.702919510279,84.20806653861996)"
        fill="#2c2891"></use>
    <use xlink:href="#bbburst-shape-7" width="6.657673862586534" opacity="0.8011023144498114"
        transform="matrix(0.9962677252239717,0.0863169721263031,-0.0863169721263031,0.9962677252239717,425.58304842847167,90.52969016116964)"
        fill="#00a19d"></use>
    <use xlink:href="#bbburst-shape-8" width="4.580092371151603" opacity="0.9324159732956846"
        transform="matrix(0.9679376671267713,-0.2511905104839424,0.2511905104839424,0.9679376671267713,273.40694298054916,32.207564193607425)"
        fill="none" stroke="#ff5c58"></use>
    <use xlink:href="#bbburst-shape-7" width="16.14693901433877" opacity="0.5733884217885739"
        transform="matrix(0.9837010082201068,0.1798119195902914,-0.1798119195902914,0.9837010082201068,655.7065308142693,-3.61184923785072)"
        fill="#00a19d" filter="url(#bbburst-blur-1)"></use>
    <use xlink:href="#bbburst-shape-7" width="12.240706012153158" opacity="0.630732958279528"
        transform="matrix(0.8577312840759741,-0.5140982827411317,0.5140982827411317,0.8577312840759741,225.346760613241,222.23537713298737)"
        fill="#2c2891" filter="url(#bbburst-blur-1)"></use>
    <use xlink:href="#bbburst-shape-9" width="23.78486242721009" opacity="0.22976358955576137"
        transform="matrix(1.2151092747223688,0.2932736784706029,-0.2932736784706029,1.2151092747223688,642.3048554858512,-407.0650542269445)"
        fill="none" stroke="#ff5c58" filter="url(#bbburst-blur-3)"></use>
    <use xlink:href="#bbburst-shape-8" width="28.432960616172107" opacity="0.43610315191219895"
        transform="matrix(0.9961326566250857,0.08786199636389525,-0.08786199636389525,0.9961326566250857,168.09592617000288,-20.651315558366605)"
        fill="none" stroke="#00a19d" filter="url(#bbburst-blur-2)"></use>
    <use xlink:href="#bbburst-shape-3" width="5.222486316046046" opacity="0.8332777342125435"
        transform="matrix(0.8699721392065582,0.4931008791356641,-0.4931008791356641,0.8699721392065582,576.3873007898436,123.40573995620292)"
        fill="#ffa6d5"></use>
    <use xlink:href="#bbburst-shape-1" width="6.215484307323552" opacity="0.9335456814486379"
        transform="matrix(0.9978039180743847,-0.066237006842146,0.066237006842146,0.9978039180743847,377.8481751652896,-27.871015167521932)"
        fill="#ffa6d5"></use>
    <use xlink:href="#bbburst-shape-8" width="28.44386188145868" opacity="0.19492837475365077"
        transform="matrix(0.9413225726579627,-0.8224425902180617,0.8224425902180617,0.9413225726579627,340.1479957674696,261.96082319747075)"
        fill="none" stroke="#00a19d" filter="url(#bbburst-blur-3)"></use>
    <use xlink:href="#bbburst-shape-11" width="33.74079213787639" opacity="0.35215670928630427"
        transform="matrix(0.867670085139598,-0.4971404463065168,0.4971404463065168,0.867670085139598,-89.58347923479776,-33.310201189481404)"
        fill="none" stroke="#ffa6d5" filter="url(#bbburst-blur-2)"></use>
    <use xlink:href="#bbburst-shape-4" width="17.373620507573534" opacity="0.7131825516581991"
        transform="matrix(0.9058135844030525,-0.4236764689133609,0.4236764689133609,0.9058135844030525,102.21695997067641,87.73939683719408)"
        fill="#ffa6d5" filter="url(#bbburst-blur-1)"></use>
    <use xlink:href="#bbburst-shape-1" width="16.338255956420465" opacity="0.6220555921687918"
        transform="matrix(0.7763719349518932,-0.6302750341073755,0.6302750341073755,0.7763719349518932,308.05612723560495,59.90533756544971)"
        fill="#ff5c58" filter="url(#bbburst-blur-1)"></use>
    <use xlink:href="#bbburst-shape-1" width="16.400264587134803" opacity="0.5739387300906458"
        transform="matrix(0.709162013930788,0.7050455573915978,-0.7050455573915978,0.709162013930788,659.1990734808676,-80.40468512119287)"
        fill="#ffa6d5" filter="url(#bbburst-blur-1)"></use>
    <use xlink:href="#bbburst-shape-13" width="6.191960809368107" opacity="0.9004040787016968"
        transform="matrix(0.8110658410895637,0.584954871265877,-0.584954871265877,0.8110658410895637,596.9468561249828,102.34163201688727)"
        fill="none" stroke="#2c2891"></use>
    <use xlink:href="#bbburst-shape-13" width="5.975366783379403" opacity="0.9039390161789812"
        transform="matrix(0.7542097452069926,-0.6566335814096042,0.6566335814096042,0.7542097452069926,165.80513590823108,130.69814650689017)"
        fill="none" stroke="#ffa6d5"></use>
    <use xlink:href="#bbburst-shape-7" width="20.463815639619227" opacity="0.10020894362644028"
        transform="matrix(1.727224164653806,0.2814190559218789,-0.2814190559218789,1.727224164653806,329.92732163303714,76.0306148181046)"
        fill="#00a19d" filter="url(#bbburst-blur-4)"></use>
    <use xlink:href="#bbburst-shape-3" width="24.381978791844062" opacity="0.32221202880214495"
        transform="matrix(0.8851601432230781,-0.88260496307765,0.88260496307765,0.8851601432230781,328.3388968873332,144.04334563350375)"
        fill="#2c2891" filter="url(#bbburst-blur-3)"></use>
    <use xlink:href="#bbburst-shape-4" width="27.254183728832707" opacity="0.15400659468770195"
        transform="matrix(1.1088145917188972,-0.577087689343011,0.577087689343011,1.1088145917188972,-52.129337912715755,-355.6537031247041)"
        fill="#00a19d" filter="url(#bbburst-blur-3)"></use>
    <use xlink:href="#bbburst-shape-3" width="7.252172569648843" opacity="0.9274438404579934"
        transform="matrix(0.9983528980408183,-0.05737151709253946,0.05737151709253946,0.9983528980408183,402.2288515135742,16.2029922889883)"
        fill="#ffbd9b"></use>
    <use xlink:href="#bbburst-shape-8" width="6.560085608877218" opacity="0.8206540486133962"
        transform="matrix(0.9894365326129069,0.1449667131825371,-0.1449667131825371,0.9894365326129069,374.31765383576226,10.491210415262799)"
        fill="none" stroke="#00a19d"></use>
    <use xlink:href="#bbburst-shape-2" width="6.425820772224972" opacity="0.8628581435308464"
        transform="matrix(0.9995558344715312,0.02980157334640123,-0.02980157334640123,0.9995558344715312,454.05266487661163,41.94866690352541)"
        fill="#ffbd9b"></use>
    <use xlink:href="#bbburst-shape-10" width="20.1665365915374" opacity="0.5791515534793505"
        transform="matrix(0.9433794292983777,0.33171561973574165,-0.33171561973574165,0.9433794292983777,633.6664228759105,173.11136573056655)"
        fill="none" stroke="#2c2891" filter="url(#bbburst-blur-1)"></use>
    <use xlink:href="#bbburst-shape-8" width="19.55191993696245" opacity="0.5182212736067124"
        transform="matrix(0.9885507932261015,-0.1508884661332517,0.1508884661332517,0.9885507932261015,541.7129197314018,-40.548302697233964)"
        fill="none" stroke="#ffa6d5" filter="url(#bbburst-blur-2)"></use>
    <use xlink:href="#bbburst-shape-11" width="14.70949133178022" opacity="0.6650557081277018"
        transform="matrix(0.8829047897431073,-0.46955205488708024,0.46955205488708024,0.8829047897431073,307.18011949658205,161.47405203060725)"
        fill="none" stroke="#ffa6d5" filter="url(#bbburst-blur-1)"></use>
    <use xlink:href="#bbburst-shape-9" width="21.26160432594147" opacity="0.5947007369883257"
        transform="matrix(0.7121174001583226,-0.7020604022388327,0.7020604022388327,0.7121174001583226,179.73744286069115,-46.62597856568726)"
        fill="none" stroke="#ffbd9b" filter="url(#bbburst-blur-1)"></use>
    <use xlink:href="#bbburst-shape-9" width="20.82493357546197" opacity="0.4133270482920057"
        transform="matrix(0.7282504539162332,0.6853110800000247,-0.6853110800000247,0.7282504539162332,927.2455452416473,59.258973622520216)"
        fill="none" stroke="#00a19d" filter="url(#bbburst-blur-2)"></use>
    <use xlink:href="#bbburst-shape-5" width="23.72543897035763" opacity="0.3905066813847142"
        transform="matrix(0.836417781588011,-0.5480924143275389,0.5480924143275389,0.836417781588011,288.69888588235847,319.5930004661638)"
        fill="#2c2891" filter="url(#bbburst-blur-2)"></use>
    <use xlink:href="#bbburst-shape-10" width="22.126589041758" opacity="0.430043724021851"
        transform="matrix(0.9355842110551621,0.35310364487539614,-0.35310364487539614,0.9355842110551621,577.6801538750649,-230.3165307718841)"
        fill="none" stroke="#2c2891" filter="url(#bbburst-blur-2)"></use>
    <use xlink:href="#bbburst-shape-5" width="10.726453873716833" opacity="0.7328343999563358"
        transform="matrix(0.9825479614926622,0.18600941741378027,-0.18600941741378027,0.9825479614926622,373.17891030902103,78.41615947947741)"
        fill="#00a19d" filter="url(#bbburst-blur-1)"></use>
    <use xlink:href="#bbburst-shape-7" width="11.409341919720621" opacity="0.7475381181055858"
        transform="matrix(0.9778436202335912,-0.20933670095915907,0.20933670095915907,0.9778436202335912,423.93411692735,1.5404469878405962)"
        fill="#ff5c58" filter="url(#bbburst-blur-1)"></use>
    <use xlink:href="#bbburst-shape-12" width="22.108118162430124" opacity="0.5217956425135097"
        transform="matrix(0.9119493791430809,-0.41030272955532376,0.41030272955532376,0.9119493791430809,71.69226937994824,-110.49401541650266)"
        fill="none" stroke="#ffbd9b" filter="url(#bbburst-blur-2)"></use>
    <use xlink:href="#bbburst-shape-13" width="16.819540949831843" opacity="0.619100220702123"
        transform="matrix(0.9224688535320056,-0.38607151444175114,0.38607151444175114,0.9224688535320056,74.55736352008554,-17.96166332261805)"
        fill="none" stroke="#ff5c58" filter="url(#bbburst-blur-1)"></use>
    <use xlink:href="#bbburst-shape-14" width="24.917657895215356" opacity="0.35151418093172193"
        transform="matrix(0.878262460592197,0.4781788894488542,-0.4781788894488542,0.878262460592197,836.9416838012176,181.6914181305952)"
        fill="none" stroke="#2c2891" filter="url(#bbburst-blur-2)"></use>
    <use xlink:href="#bbburst-shape-6" width="33.358906960043974" opacity="0.22156279699741466"
        transform="matrix(1.2208656449886441,0.26830407541903273,-0.26830407541903273,1.2208656449886441,178.24016302970944,-258.35344404425905)"
        fill="#2c2891" filter="url(#bbburst-blur-3)"></use>
    <use xlink:href="#bbburst-shape-4" width="33.334854920072594" opacity="-0.12217193802582993"
        transform="matrix(1.7075321750812384,-0.38318908004056496,0.38318908004056496,1.7075321750812384,573.2940923630299,82.54127344848064)"
        fill="#ffbd9b" filter="url(#bbburst-blur-4)"></use>
    <use xlink:href="#bbburst-shape-10" width="38.03881582084709" opacity="0.1036191528759065"
        transform="matrix(1.7385958950113651,-0.19946005577465928,0.19946005577465928,1.7385958950113651,-10.855049219776902,-19.79533879547148)"
        fill="none" stroke="#ffbd9b" filter="url(#bbburst-blur-4)"></use>
    <use xlink:href="#bbburst-shape-8" width="15.579962911631231" opacity="0.639376472493049"
        transform="matrix(0.8233145842009596,-0.567585319966964,0.567585319966964,0.8233145842009596,168.40669160312007,237.36564715348095)"
        fill="none" stroke="#ffa6d5" filter="url(#bbburst-blur-1)"></use>
    <use xlink:href="#bbburst-shape-2" width="5.904920941430706" opacity="0.9336123660639624"
        transform="matrix(0.9329886421200648,-0.3599058122272515,0.3599058122272515,0.9329886421200648,267.3924130293407,54.20314443080895)"
        fill="#ffa6d5"></use>
    <use xlink:href="#bbburst-shape-11" width="6.424611743762186" opacity="0.9031229933314289"
        transform="matrix(0.8133730734713686,-0.5817424201068198,0.5817424201068198,0.8133730734713686,189.080227226775,40.35133155453502)"
        fill="none" stroke="#2c2891"></use>
    <use xlink:href="#bbburst-shape-6" width="16.255183400654758" opacity="0.5878541421503851"
        transform="matrix(0.8731078675610011,-0.4875270778152545,0.4875270778152545,0.8731078675610011,335.6304766062224,178.9204279715617)"
        fill="#00a19d" filter="url(#bbburst-blur-1)"></use>
    <use xlink:href="#bbburst-shape-5" width="20.69253411754073" opacity="0.48396734457989865"
        transform="matrix(0.9916009145096931,-0.1293353251959426,0.1293353251959426,0.9916009145096931,570.1130805125727,11.783588190836383)"
        fill="#ff5c58" filter="url(#bbburst-blur-2)"></use>
    <use xlink:href="#bbburst-shape-4" width="7.892277684593305" opacity="0.7946192750393766"
        transform="matrix(0.7959342502920607,0.6053830764169208,-0.6053830764169208,0.7959342502920607,614.4118827838391,168.3313979549386)"
        fill="#ff5c58"></use>
    <use xlink:href="#bbburst-shape-7" width="26.782151577159038" opacity="0.11573773265009046"
        transform="matrix(1.2454977970098864,-0.1059964039178697,0.1059964039178697,1.2454977970098864,194.98409402074952,-467.017991749806)"
        fill="#00a19d" filter="url(#bbburst-blur-3)"></use>
    <use xlink:href="#bbburst-shape-6" width="30.23846745312657" opacity="0.007252309727416972"
        transform="matrix(1.480231384517728,0.933496142621238,-0.933496142621238,1.480231384517728,1015.3883920895149,153.90783247885145)"
        fill="#ff5c58" filter="url(#bbburst-blur-4)"></use>
    <use xlink:href="#bbburst-shape-7" width="14.28366320795164" opacity="0.6482484000677344"
        transform="matrix(0.8387931919817023,-0.5444501640050695,0.5444501640050695,0.8387931919817023,40.897986591200834,-13.780891232511294)"
        fill="#2c2891" filter="url(#bbburst-blur-1)"></use>
    <use xlink:href="#bbburst-shape-10" width="30.248473855303388" opacity="0.28775099501355395"
        transform="matrix(1.2437686258639786,0.124657953281893,-0.124657953281893,1.2437686258639786,207.64952059460893,130.4315968463493)"
        fill="none" stroke="#ff5c58" filter="url(#bbburst-blur-3)"></use>
    <use xlink:href="#bbburst-shape-10" width="11.883496560988508" opacity="0.7081723979434746"
        transform="matrix(0.7243520819955319,0.6894302439759502,-0.6894302439759502,0.7243520819955319,681.279485433329,-24.792653862850955)"
        fill="none" stroke="#2c2891" filter="url(#bbburst-blur-1)"></use>
    <use xlink:href="#bbburst-shape-14" width="12.560763446331812" opacity="0.7547698058918463"
        transform="matrix(0.8539590025907298,-0.520340294321174,0.520340294321174,0.8539590025907298,272.76725003430624,-7.130782749899993)"
        fill="none" stroke="#ffa6d5" filter="url(#bbburst-blur-1)"></use>
    <use xlink:href="#bbburst-shape-10" width="34.60000157220553" opacity="0.2697645246153104"
        transform="matrix(1.243648932923065,-0.1258464605752633,0.1258464605752633,1.243648932923065,1.3850636368703846,-130.05281326944913)"
        fill="none" stroke="#2c2891" filter="url(#bbburst-blur-3)"></use>
    <use xlink:href="#bbburst-shape-2" width="27.922721353767564" opacity="0.45515066017650174"
        transform="matrix(0.9871392679820786,-0.15986264606782302,0.15986264606782302,0.9871392679820786,487.5273933397297,-173.7344329451182)"
        fill="#00a19d" filter="url(#bbburst-blur-2)"></use>
    <use xlink:href="#bbburst-shape-3" width="5.095496616896979" opacity="0.9612107326093998"
        transform="matrix(0.9968313715393231,-0.07954380375008398,0.07954380375008398,0.9968313715393231,350.7768299136537,10.65108408157937)"
        fill="#00a19d"></use>
    <use xlink:href="#bbburst-shape-9" width="12.801077215007426" opacity="0.6726733815448102"
        transform="matrix(0.7416747972817523,-0.6707596403161654,0.6707596403161654,0.7416747972817523,96.79490570359957,251.74882727070963)"
        fill="none" stroke="#ffa6d5" filter="url(#bbburst-blur-1)"></use>
    <use xlink:href="#bbburst-shape-11" width="15.183318801643532" opacity="0.6621532184793455"
        transform="matrix(0.9459410044735179,-0.3243387365943696,0.3243387365943696,0.9459410044735179,181.928740516779,-104.69814154229425)"
        fill="none" stroke="#00a19d" filter="url(#bbburst-blur-1)"></use>
    <use xlink:href="#bbburst-shape-2" width="8.420735475762408" opacity="0.8858729401217246"
        transform="matrix(0.7529623137878666,0.6580636397911848,-0.6580636397911848,0.7529623137878666,707.3221585305635,116.12569779468612)"
        fill="#00a19d"></use>
    <use xlink:href="#bbburst-shape-6" width="10.864941616206684" opacity="0.7107673185238368"
        transform="matrix(0.9010331761684922,0.4337501763039629,-0.4337501763039629,0.9010331761684922,653.9231442716782,-61.060361259609806)"
        fill="#00a19d" filter="url(#bbburst-blur-1)"></use>
    <use xlink:href="#bbburst-shape-7" width="25.934555425837114" opacity="0.15565614300317343"
        transform="matrix(1.2186497947081634,0.278195395105223,-0.278195395105223,1.2186497947081634,576.3112002417489,-462.33573518325306)"
        fill="#00a19d" filter="url(#bbburst-blur-3)"></use>
    <use xlink:href="#bbburst-shape-4" width="12.062687144557483" opacity="0.5975883091760468"
        transform="matrix(0.7145133806383108,0.6996217755965093,-0.6996217755965093,0.7145133806383108,831.5707874994475,201.8720195190936)"
        fill="#00a19d" filter="url(#bbburst-blur-1)"></use>
    <use xlink:href="#bbburst-shape-11" width="7.038622851981092" opacity="0.8682520127142705"
        transform="matrix(0.7429372667216138,-0.6693610518369124,0.6693610518369124,0.7429372667216138,83.00141482986157,141.79191024517803)"
        fill="none" stroke="#00a19d"></use>
    <use xlink:href="#bbburst-shape-11" width="12.866510841112065" opacity="0.5537506825482714"
        transform="matrix(0.9791806389596285,-0.2029908280849501,0.2029908280849501,0.9791806389596285,510.51799747298946,42.67978020981076)"
        fill="none" stroke="#ffa6d5" filter="url(#bbburst-blur-2)"></use>
    <use xlink:href="#bbburst-shape-2" width="13.243342654914551" opacity="0.6366611784294366"
        transform="matrix(0.723763779926082,0.690047817812005,-0.690047817812005,0.723763779926082,834.1556253485189,119.55698616903936)"
        fill="#00a19d" filter="url(#bbburst-blur-1)"></use>
    <use xlink:href="#bbburst-shape-12" width="13.023732041802615" opacity="0.6614462775632919"
        transform="matrix(0.8985839307974749,-0.4388016856309452,0.4388016856309452,0.8985839307974749,67.12166877782536,59.50476372252558)"
        fill="none" stroke="#ffa6d5" filter="url(#bbburst-blur-1)"></use>
    <use xlink:href="#bbburst-shape-12" width="16.662706532184725" opacity="0.5137186983617386"
        transform="matrix(0.9060799491203462,-0.42310651826941975,0.42310651826941975,0.9060799491203462,311.8417635067037,241.1330926995047)"
        fill="none" stroke="#ffa6d5" filter="url(#bbburst-blur-2)"></use>
    <use xlink:href="#bbburst-shape-12" width="10.795611422852478" opacity="0.7516504729255579"
        transform="matrix(0.7913979681922784,0.6113012808273295,-0.6113012808273295,0.7913979681922784,688.6535206562291,-20.610753860916645)"
        fill="none" stroke="#ff5c58" filter="url(#bbburst-blur-1)"></use>
    <use xlink:href="#bbburst-shape-10" width="12.605356993568812" opacity="0.6925423423197434"
        transform="matrix(0.9064427286621928,-0.4223287577888088,0.4223287577888088,0.9064427286621928,342.26293555740403,-33.90859127376581)"
        fill="none" stroke="#2c2891" filter="url(#bbburst-blur-1)"></use>
    <use xlink:href="#bbburst-shape-9" width="37.92708450496349" opacity="0.24248012332588154"
        transform="matrix(1.117886653091879,0.5593115686619017,-0.5593115686619017,1.117886653091879,312.37584477160215,120.64833752178254)"
        fill="none" stroke="#ffa6d5" filter="url(#bbburst-blur-3)"></use>
    <use xlink:href="#bbburst-shape-2" width="31.12281485629407" opacity="0.17568797379660717"
        transform="matrix(1.1806354020905565,-0.4106093609873865,0.4106093609873865,1.1806354020905565,-136.20023635127984,46.27217830645509)"
        fill="#00a19d" filter="url(#bbburst-blur-3)"></use>
    <use xlink:href="#bbburst-shape-6" width="18.915302874110722" opacity="0.6421351925753498"
        transform="matrix(0.7661788256081795,0.6426274248658167,-0.6426274248658167,0.7661788256081795,511.59776783242614,170.10975834783142)"
        fill="#ffa6d5" filter="url(#bbburst-blur-1)"></use>
    <use xlink:href="#bbburst-shape-14" width="7.740683068262902" opacity="0.8927572235708876"
        transform="matrix(0.9872758475574283,0.15901698283441862,-0.15901698283441862,0.9872758475574283,413.50297555842195,-9.1909383702166)"
        fill="none" stroke="#2c2891"></use>
    <use xlink:href="#bbburst-shape-9" width="26.13339696416203" opacity="0.3857762019922977"
        transform="matrix(0.8174135994019374,-0.5760512195219876,0.5760512195219876,0.8174135994019374,70.41964851067715,342.3084084988975)"
        fill="none" stroke="#00a19d" filter="url(#bbburst-blur-2)"></use>
    <use xlink:href="#bbburst-shape-7" width="10.099108458232875" opacity="0.6916689620253706"
        transform="matrix(0.9266153077321229,0.3760107331932206,-0.3760107331932206,0.9266153077321229,670.2122867364423,88.64491952166156)"
        fill="#ffa6d5" filter="url(#bbburst-blur-1)"></use>
    <use xlink:href="#bbburst-shape-7" width="5.7372901606296995" opacity="0.9311387293217075"
        transform="matrix(0.9976271863430117,0.06884763662846982,-0.06884763662846982,0.9976271863430117,417.45184281243274,-29.389987619128306)"
        fill="#00a19d"></use>
    <use xlink:href="#bbburst-shape-12" width="11.227458252981206" opacity="0.6853357874683939"
        transform="matrix(0.8068522461823133,0.5907532926954835,-0.5907532926954835,0.8068522461823133,744.9340026444082,159.05737123869363)"
        fill="none" stroke="#00a19d" filter="url(#bbburst-blur-1)"></use>
    <use xlink:href="#bbburst-shape-5" width="29.963323106749755" opacity="0.37598245134101194"
        transform="matrix(0.9942142049318011,-0.107415616703655,0.107415616703655,0.9942142049318011,195.8236555379905,243.60035988725593)"
        fill="#ffa6d5" filter="url(#bbburst-blur-2)"></use>
    <use xlink:href="#bbburst-shape-11" width="6.788348760205637" opacity="0.8153375918384587"
        transform="matrix(0.8837474796403703,0.46796409288458585,-0.46796409288458585,0.8837474796403703,543.874437293489,117.478060241305)"
        fill="none" stroke="#00a19d"></use>
    <use xlink:href="#bbburst-shape-6" width="14.595499215061846" opacity="0.6698211743072929"
        transform="matrix(0.8653792617941947,0.5011174844849605,-0.5011174844849605,0.8653792617941947,669.0767526255512,-78.10270034486348)"
        fill="#2c2891" filter="url(#bbburst-blur-1)"></use>
    <use xlink:href="#bbburst-shape-2" width="26.034507901794925" opacity="0.5164313385567043"
        transform="matrix(0.8162640948663947,-0.5776789137851107,0.5776789137851107,0.8162640948663947,-35.8316496368831,179.31602501440705)"
        fill="#00a19d" filter="url(#bbburst-blur-2)"></use>
    <use xlink:href="#bbburst-shape-11" width="22.71350231499925" opacity="0.21843936595240643"
        transform="matrix(1.2265558588775107,0.24095793212353922,-0.24095793212353922,1.2265558588775107,493.1666092937788,257.82335788811963)"
        fill="none" stroke="#ffa6d5" filter="url(#bbburst-blur-3)"></use>
    <use xlink:href="#bbburst-shape-2" width="8.934199610169552" opacity="0.7396072727436886"
        transform="matrix(0.9253816044226472,0.37903678739162955,-0.37903678739162955,0.9253816044226472,656.0724421494385,-15.863269368418742)"
        fill="#ff5c58" filter="url(#bbburst-blur-1)"></use>
    <use xlink:href="#bbburst-shape-7" width="4.4680545763658195" opacity="0.9756211821093245"
        transform="matrix(0.9285930978566265,0.3710995265599699,-0.3710995265599699,0.9285930978566265,552.7695915661433,18.829635501770156)"
        fill="#00a19d"></use>
    <use xlink:href="#bbburst-shape-5" width="9.36187013665047" opacity="0.805293574167578"
        transform="matrix(0.9602123591847379,-0.2792708815270219,0.2792708815270219,0.9602123591847379,349.5465475437718,75.13505092138178)"
        fill="#ff5c58"></use>
    <use xlink:href="#bbburst-shape-10" width="8.41992447168887" opacity="0.8566193109228357"
        transform="matrix(0.8511296428694322,-0.5249555514793162,0.5249555514793162,0.8511296428694322,213.970119286433,3.4075866473647807)"
        fill="none" stroke="#ffa6d5"></use>
    <use xlink:href="#bbburst-shape-3" width="27.300245465261813" opacity="0.2980408501169356"
        transform="matrix(1.0046229619988374,-0.743796144265808,0.743796144265808,1.0046229619988374,-74.26289075420442,-262.2405484897847)"
        fill="#ffa6d5" filter="url(#bbburst-blur-3)"></use>
    <use xlink:href="#bbburst-shape-4" width="14.63927251379841" opacity="0.6132304790038864"
        transform="matrix(0.9649878012234238,0.2622947645111926,-0.2622947645111926,0.9649878012234238,435.7903922130319,174.70341068206164)"
        fill="#00a19d" filter="url(#bbburst-blur-1)"></use>
    <use xlink:href="#bbburst-shape-5" width="33.844928766503" opacity="0.20397636315794332"
        transform="matrix(0.9799528164930104,-0.7760106168393679,0.7760106168393679,0.9799528164930104,-124.35325050597692,320.0849805622168)"
        fill="#ffa6d5" filter="url(#bbburst-blur-3)"></use>
    <use xlink:href="#bbburst-shape-14" width="8.777927303125434" opacity="0.8153866166030787"
        transform="matrix(0.9616259667735266,0.27436380961577306,-0.27436380961577306,0.9616259667735266,439.0905048368321,-35.728198461081604)"
        fill="none" stroke="#ffa6d5"></use>
    <use xlink:href="#bbburst-shape-8" width="38.67043923566763" opacity="0.18129604335015947"
        transform="matrix(1.219196896143076,-0.27578783228251674,0.27578783228251674,1.219196896143076,488.6070634054705,-375.99005229992133)"
        fill="none" stroke="#ff5c58" filter="url(#bbburst-blur-3)"></use>
    <use xlink:href="#bbburst-shape-11" width="13.687679133587263" opacity="0.606842922012329"
        transform="matrix(0.9309170050903681,0.36523078954762234,-0.36523078954762234,0.9309170050903681,609.1816714906677,187.711920772086)"
        fill="none" stroke="#2c2891" filter="url(#bbburst-blur-1)"></use>
    <use xlink:href="#bbburst-shape-4" width="16.129046387729627" opacity="0.6573598378564448"
        transform="matrix(0.8544945954408217,0.5194602837199649,-0.5194602837199649,0.8544945954408217,748.5600937041212,98.36677167381839)"
        fill="#2c2891" filter="url(#bbburst-blur-1)"></use>
    <use xlink:href="#bbburst-shape-5" width="9.152934729481908" opacity="0.6954137675654348"
        transform="matrix(0.9715398316396725,0.23687624519473646,-0.23687624519473646,0.9715398316396725,539.876992939357,138.08511487877166)"
        fill="#2c2891" filter="url(#bbburst-blur-1)"></use>
    <use xlink:href="#bbburst-shape-5" width="11.602055304710863" opacity="0.7714665460122703"
        transform="matrix(0.8507315818178915,-0.5256003954504106,0.5256003954504106,0.8507315818178915,200.63382065307803,-38.86125753320141)"
        fill="#00a19d" filter="url(#bbburst-blur-1)"></use>
    <use xlink:href="#bbburst-shape-9" width="7.917285241550976" opacity="0.8498708435301567"
        transform="matrix(0.8980930958086196,-0.43980540158221054,0.43980540158221054,0.8980930958086196,241.46662804192064,106.67784720130766)"
        fill="none" stroke="#ffa6d5"></use>
    <use xlink:href="#bbburst-shape-3" width="30.394421257150377" opacity="0.16638808153247886"
        transform="matrix(0.9166174943621598,0.849889621674036,-0.849889621674036,0.9166174943621598,1094.9073323379814,-47.2412151895665)"
        fill="#00a19d" filter="url(#bbburst-blur-3)"></use>
    <use xlink:href="#bbburst-shape-4" width="35.21409111635813" opacity="0.0483793740461721"
        transform="matrix(1.674187789750246,0.5095049014986869,-0.5095049014986869,1.674187789750246,209.4430964846317,-502.76623810622755)"
        fill="#ffa6d5" filter="url(#bbburst-blur-4)"></use>
    <use xlink:href="#bbburst-shape-7" width="18.372156111556738" opacity="0.6129746183467099"
        transform="matrix(0.9965018062094877,-0.08357122842957695,0.08357122842957695,0.9965018062094877,191.07325850800817,53.971604394078895)"
        fill="#00a19d" filter="url(#bbburst-blur-1)"></use>
    <use xlink:href="#bbburst-shape-2" width="6.803923689348028" opacity="0.840635741959045"
        transform="matrix(0.9997724160522845,-0.021333450283011104,0.021333450283011104,0.9997724160522845,341.38927283713895,54.611630553890166)"
        fill="#ff5c58"></use>
    <use xlink:href="#bbburst-shape-10" width="30.22090128540735" opacity="0.28658004693756844"
        transform="matrix(1.1434131094567799,0.5050806481368869,-0.5050806481368869,1.1434131094567799,819.9916532446755,-283.46837265429394)"
        fill="none" stroke="#ffa6d5" filter="url(#bbburst-blur-3)"></use>
    <use xlink:href="#bbburst-shape-7" width="14.788594218770246" opacity="0.7467398972608539"
        transform="matrix(0.9299826103626266,0.3676035152485828,-0.3676035152485828,0.9299826103626266,427.0155902769802,39.282057940651555)"
        fill="#2c2891" filter="url(#bbburst-blur-1)"></use>
    <use xlink:href="#bbburst-shape-5" width="17.828973401791046" opacity="0.5795500823133388"
        transform="matrix(0.8262127694569122,0.5633581982951338,-0.5633581982951338,0.8262127694569122,592.6015946004502,251.98579466703393)"
        fill="#2c2891" filter="url(#bbburst-blur-1)"></use>
    <use xlink:href="#bbburst-shape-12" width="25.313985382042716" opacity="0.4005657581346833"
        transform="matrix(0.9991241533516572,-0.04184406994227887,0.04184406994227887,0.9991241533516572,593.1748627217153,-151.5780639155587)"
        fill="none" stroke="#ffa6d5" filter="url(#bbburst-blur-2)"></use>
    <use xlink:href="#bbburst-shape-9" width="10.302250133291656" opacity="0.8116762940614431"
        transform="matrix(0.799863582884476,-0.600181846422573,0.600181846422573,0.799863582884476,185.12830563118865,3.5944370793341704)"
        fill="none" stroke="#ffbd9b"></use>
    <use xlink:href="#bbburst-shape-14" width="10.656021674895676" opacity="0.8148777007741832"
        transform="matrix(0.9899584278783176,-0.14135880260065165,0.14135880260065165,0.9899584278783176,402.14420773096333,-48.5903163693398)"
        fill="none" stroke="#00a19d"></use>
    <use xlink:href="#bbburst-shape-9" width="10.177614932777988" opacity="0.7642528735131273"
        transform="matrix(0.9998046580551756,-0.019764759830906756,0.019764759830906756,0.9998046580551756,340.670490284792,95.54283664868291)"
        fill="none" stroke="#ffa6d5" filter="url(#bbburst-blur-1)"></use>
    <use xlink:href="#bbburst-shape-2" width="13.34496916701125" opacity="0.7423207228787658"
        transform="matrix(0.9004413550507172,0.43497743173000153,-0.43497743173000153,0.9004413550507172,552.8524295113299,-78.03757140443804)"
        fill="#00a19d" filter="url(#bbburst-blur-1)"></use>
    <use xlink:href="#bbburst-shape-8" width="14.541384323214505" opacity="0.5483032721588116"
        transform="matrix(0.9999356478247602,-0.011344611464357154,0.011344611464357154,0.9999356478247602,413.4977980812297,201.79033622615157)"
        fill="none" stroke="#2c2891" filter="url(#bbburst-blur-2)"></use>
    <use xlink:href="#bbburst-shape-8" width="9.959914960015885" opacity="0.839451615299028"
        transform="matrix(0.8213293748892353,0.570454255785736,-0.570454255785736,0.8213293748892353,695.1528133734805,81.66154837014892)"
        fill="none" stroke="#ff5c58"></use>
    <use xlink:href="#bbburst-shape-14" width="9.244912300365076" opacity="0.7913073066603189"
        transform="matrix(0.9725008480306655,0.2328993357217586,-0.2328993357217586,0.9725008480306655,544.9932048511812,-65.2055981626309)"
        fill="none" stroke="#2c2891"></use>
    <use xlink:href="#bbburst-shape-8" width="24.400322894132792" opacity="0.4798965898035302"
        transform="matrix(0.9990814605300194,0.04285131532640662,-0.04285131532640662,0.9990814605300194,611.0670823931919,110.72375269244134)"
        fill="none" stroke="#2c2891" filter="url(#bbburst-blur-2)"></use>
    <use xlink:href="#bbburst-shape-9" width="8.572924757985838" opacity="0.8074878840278952"
        transform="matrix(0.9691145011424197,-0.24661119941210904,0.24661119941210904,0.9691145011424197,260.4657219287156,-65.10723955788359)"
        fill="none" stroke="#2c2891"></use>
    <use xlink:href="#bbburst-shape-14" width="26.776564810150056" opacity="0.4781690401538392"
        transform="matrix(0.860805155992288,0.5089346553508541,-0.5089346553508541,0.860805155992288,696.8806310665148,-161.22079472889016)"
        fill="none" stroke="#ffa6d5" filter="url(#bbburst-blur-2)"></use>
    <use xlink:href="#bbburst-shape-11" width="11.386018972728582" opacity="0.7610780433623808"
        transform="matrix(0.9445646405746492,0.3283255088720396,-0.3283255088720396,0.9445646405746492,581.1988506754711,112.43038145840211)"
        fill="none" stroke="#2c2891" filter="url(#bbburst-blur-1)"></use>
    <use xlink:href="#bbburst-shape-9" width="9.624675691440723" opacity="0.8144099199449677"
        transform="matrix(0.8794211216205217,-0.47604463115101264,0.47604463115101264,0.8794211216205217,123.1642545183156,35.451679604144374)"
        fill="none" stroke="#00a19d"></use>
    <use xlink:href="#bbburst-shape-10" width="4.7648797264924045" opacity="0.9534849779488728"
        transform="matrix(0.9448621105923419,-0.32746845949951425,0.32746845949951425,0.9448621105923419,287.6576362427654,21.613985606964434)"
        fill="none" stroke="#ffbd9b"></use>
    <use xlink:href="#bbburst-shape-1" width="21.670554051327034" opacity="0.17409245001998253"
        transform="matrix(1.1068338640647908,-0.5808776096213423,0.5808776096213423,1.1068338640647908,125.2423914878425,-406.81921819280365)"
        fill="#00a19d" filter="url(#bbburst-blur-3)"></use>
    <use xlink:href="#bbburst-shape-12" width="21.744137479086234" opacity="0.4622047011196475"
        transform="matrix(0.9915806920162997,0.12949027461734747,-0.12949027461734747,0.9915806920162997,587.9597584470382,194.21415351762226)"
        fill="none" stroke="#ffa6d5" filter="url(#bbburst-blur-2)"></use>
    <use xlink:href="#bbburst-shape-3" width="7.319328330918536" opacity="0.8940039591124579"
        transform="matrix(0.844219669517214,-0.5359973410384102,0.5359973410384102,0.844219669517214,192.6870169571017,17.693629718964303)"
        fill="#00a19d"></use>
    <use xlink:href="#bbburst-shape-7" width="12.518960274189396" opacity="0.6922659814649736"
        transform="matrix(0.9167907956962522,0.39936779655679905,-0.39936779655679905,0.9167907956962522,688.5323971794782,-1.9407764985103313)"
        fill="#2c2891" filter="url(#bbburst-blur-1)"></use>
    <use xlink:href="#bbburst-shape-5" width="12.449353237721127" opacity="0.7193947217562284"
        transform="matrix(0.8325535521988421,0.553944566469507,-0.553944566469507,0.8325535521988421,541.2060651223677,164.9763475210421)"
        fill="#ffa6d5" filter="url(#bbburst-blur-1)"></use>
    <use xlink:href="#bbburst-shape-11" width="9.88272814240147" opacity="0.7770733631279734"
        transform="matrix(0.9275878865922703,0.3736050222458009,-0.3736050222458009,0.9275878865922703,480.3969517227828,103.82556622444571)"
        fill="none" stroke="#2c2891" filter="url(#bbburst-blur-1)"></use>
    <use xlink:href="#bbburst-shape-4" width="9.520448145817308" opacity="0.8437564361864252"
        transform="matrix(0.8256522234139222,0.5641794093829078,-0.5641794093829078,0.8256522234139222,557.2603124084515,39.0204606995203)"
        fill="#ffa6d5"></use>
    <use xlink:href="#bbburst-shape-4" width="9.069924394776242" opacity="0.7977138117878063"
        transform="matrix(0.9999484587962773,0.010152819852127683,-0.010152819852127683,0.9999484587962773,312.31674431076175,26.073643886756656)"
        fill="#ffa6d5"></use>
    <use xlink:href="#bbburst-shape-14" width="9.13087972268994" opacity="0.744918309385963"
        transform="matrix(0.7659452989239944,-0.6429057466349424,0.6429057466349424,0.7659452989239944,113.55666898627442,208.41802026477643)"
        fill="none" stroke="#ffa6d5" filter="url(#bbburst-blur-1)"></use>
    <use xlink:href="#bbburst-shape-9" width="14.855283409547887" opacity="0.6344159603331672"
        transform="matrix(0.947819590315364,-0.31880718971568933,0.31880718971568933,0.947819590315364,387.50935313293263,-87.10459989152639)"
        fill="none" stroke="#ffa6d5" filter="url(#bbburst-blur-1)"></use>
    <use xlink:href="#bbburst-shape-3" width="10.459596075934027" opacity="0.7515927565911481"
        transform="matrix(0.9461466421780876,-0.3237383688955169,0.3237383688955169,0.9461466421780876,220.60725853525636,-79.11698276820118)"
        fill="#2c2891" filter="url(#bbburst-blur-1)"></use>
    <use xlink:href="#bbburst-shape-9" width="10.716869513139704" opacity="0.7304248744194974"
        transform="matrix(0.9946874584364257,0.10294105123459692,-0.10294105123459692,0.9946874584364257,340.1280306111494,-73.01280602261676)"
        fill="none" stroke="#ffa6d5" filter="url(#bbburst-blur-1)"></use>
    <use xlink:href="#bbburst-shape-7" width="23.886318178504713" opacity="0.4527259872189523"
        transform="matrix(0.8355513848982496,0.5494123071015219,-0.5494123071015219,0.8355513848982496,663.3655771891208,299.52331065456866)"
        fill="#ffbd9b" filter="url(#bbburst-blur-2)"></use>
    <use xlink:href="#bbburst-shape-13" width="7.191211376265168" opacity="0.8735202693640626"
        transform="matrix(0.8277265806022478,-0.5611316314061351,0.5611316314061351,0.8277265806022478,201.4043959151611,119.99898700244762)"
        fill="none" stroke="#00a19d"></use>
    <use xlink:href="#bbburst-shape-4" width="4.48636427764109" opacity="0.9346173785631785"
        transform="matrix(0.7374773634489548,0.6753718519455622,-0.6753718519455622,0.7374773634489548,666.5261670057303,132.8535275860183)"
        fill="#00a19d"></use>
    <use xlink:href="#bbburst-shape-7" width="21.09583480822888" opacity="0.46971122986572167"
        transform="matrix(0.9195868868208606,0.392886698154974,-0.392886698154974,0.9195868868208606,534.8979669499952,-210.31783641562436)"
        fill="#00a19d" filter="url(#bbburst-blur-2)"></use>
    <use xlink:href="#bbburst-shape-2" width="11.407041910707541" opacity="0.7962772384658692"
        transform="matrix(0.93967554265827,0.34206706145123916,-0.34206706145123916,0.93967554265827,613.6811719120781,-18.373427045121616)"
        fill="#ffa6d5"></use>
    <use xlink:href="#bbburst-shape-13" width="23.491248301075064" opacity="0.4414436992521099"
        transform="matrix(0.9797257347456859,0.20034341685472454,-0.20034341685472454,0.9797257347456859,347.62574782305,-214.55002045533524)"
        fill="none" stroke="#ffa6d5" filter="url(#bbburst-blur-2)"></use>
    <use xlink:href="#bbburst-shape-9" width="7.481719184933758" opacity="0.8086766213990939"
        transform="matrix(0.857804722557905,-0.5139757367399318,0.5139757367399318,0.857804722557905,205.994036888623,143.56811905440662)"
        fill="none" stroke="#2c2891"></use>
    <use xlink:href="#bbburst-shape-9" width="4.991866067461479" opacity="0.9864412838101246"
        transform="matrix(0.7809796335721964,-0.6245564921970133,0.6245564921970133,0.7809796335721964,153.70791291777465,91.78053018181663)"
        fill="none" stroke="#00a19d"></use>
    <use xlink:href="#bbburst-shape-5" width="12.529736690280934" opacity="0.7130952955186043"
        transform="matrix(0.8217353958147497,-0.5698692299687504,0.5698692299687504,0.8217353958147497,161.72566759353253,203.87920345657676)"
        fill="#2c2891" filter="url(#bbburst-blur-1)"></use>
    <use xlink:href="#bbburst-shape-14" width="10.663050959672058" opacity="0.7619309820994895"
        transform="matrix(0.9673968466027654,0.2532653572501095,-0.2532653572501095,0.9673968466027654,389.98378038574725,-2.67939200355039)"
        fill="none" stroke="#ffa6d5" filter="url(#bbburst-blur-1)"></use>
    <use xlink:href="#bbburst-shape-3" width="5.972209189932695" opacity="0.904141254567488"
        transform="matrix(0.8278513381345141,0.5609475572180473,-0.5609475572180473,0.8278513381345141,638.2470151595661,107.08576263480654)"
        fill="#00a19d"></use>
    <use xlink:href="#bbburst-shape-10" width="20.050917239276504" opacity="0.5376576800138452"
        transform="matrix(0.9831061519546063,-0.18303631877036478,0.18303631877036478,0.9831061519546063,355.1632321799817,-195.9182181985603)"
        fill="none" stroke="#2c2891" filter="url(#bbburst-blur-2)"></use>
    <use xlink:href="#bbburst-shape-8" width="5.2799883810321235" opacity="0.9249850130814392"
        transform="matrix(0.7588426536323002,0.6512740030342751,-0.6512740030342751,0.7588426536323002,689.8601811752008,82.2356041642941)"
        fill="none" stroke="#00a19d"></use>
    <use xlink:href="#bbburst-shape-10" width="21.106710012213718" opacity="0.5047665515444573"
        transform="matrix(0.9131922737895,-0.407528981903328,0.407528981903328,0.9131922737895,163.4386836337085,-174.4698329883662)"
        fill="none" stroke="#00a19d" filter="url(#bbburst-blur-2)"></use>
    <use xlink:href="#bbburst-shape-8" width="26.404374962161715" opacity="0.13310584870913145"
        transform="matrix(0.9982298830121873,-0.7523543717301541,0.7523543717301541,0.9982298830121873,449.4253245769737,-130.8308928253474)"
        fill="none" stroke="#ffbd9b" filter="url(#bbburst-blur-3)"></use>
    <use xlink:href="#bbburst-shape-5" width="23.250658493476877" opacity="0.1022757230870538"
        transform="matrix(1.737428863070174,0.2093822957431767,-0.2093822957431767,1.737428863070174,632.6696751328718,69.46850427667846)"
        fill="#ffbd9b" filter="url(#bbburst-blur-4)"></use>
    <use xlink:href="#bbburst-shape-7" width="19.509827787482866" opacity="0.4860015658797284"
        transform="matrix(0.7388446718491631,-0.6738757681354202,0.6738757681354202,0.7388446718491631,299.4283887070729,260.87161601409684)"
        fill="#00a19d" filter="url(#bbburst-blur-2)"></use>
    <use xlink:href="#bbburst-shape-9" width="6.791355159168573" opacity="0.9157923003466979"
        transform="matrix(0.7503377322074105,0.6610546782421559,-0.6610546782421559,0.7503377322074105,629.698764160457,77.61778384632134)"
        fill="none" stroke="#00a19d"></use>
    <use xlink:href="#bbburst-shape-11" width="14.932632710693737" opacity="0.5363588070042711"
        transform="matrix(0.7864184207838717,0.6176941536487142,-0.6176941536487142,0.7864184207838717,831.0669051407901,-6.094669084005432)"
        fill="none" stroke="#ffa6d5" filter="url(#bbburst-blur-2)"></use>
    <use xlink:href="#bbburst-shape-2" width="18.591519923854456" opacity="0.5751015310484802"
        transform="matrix(0.804408245644497,-0.5940769094478783,0.5940769094478783,0.804408245644497,269.25724302511236,-69.46807576896532)"
        fill="#2c2891" filter="url(#bbburst-blur-1)"></use>
    <use xlink:href="#bbburst-shape-3" width="11.680025602336539" opacity="0.7581090115784422"
        transform="matrix(0.9476921717995296,0.31918575705988333,-0.31918575705988333,0.9476921717995296,553.6424461489297,123.22473325007991)"
        fill="#ffa6d5" filter="url(#bbburst-blur-1)"></use>
    <use xlink:href="#bbburst-shape-11" width="12.916856420738963" opacity="0.6920503920970759"
        transform="matrix(0.9997163494069159,0.023816396211625884,-0.023816396211625884,0.9997163494069159,443.2630810605233,-132.82842779788967)"
        fill="none" stroke="#2c2891" filter="url(#bbburst-blur-1)"></use>
    <use xlink:href="#bbburst-shape-11" width="8.667473914155053" opacity="0.8339569701068864"
        transform="matrix(0.9992088680307621,-0.0397698132844865,0.0397698132844865,0.9992088680307621,314.5669784926957,36.89023541043639)"
        fill="none" stroke="#ff5c58"></use>
    <use xlink:href="#bbburst-shape-8" width="6.169664246877418" opacity="0.9564648560626415"
        transform="matrix(0.8558391288497466,0.5172420956667263,-0.5172420956667263,0.8558391288497466,620.0311148406726,67.68633823357948)"
        fill="none" stroke="#2c2891"></use>
    <use xlink:href="#bbburst-shape-6" width="19.007787479208602" opacity="0.2609131690371952"
        transform="matrix(1.2308370233613761,-0.21803720307073157,0.21803720307073157,1.2308370233613761,630.8472748093536,-46.973474459365036)"
        fill="#2c2891" filter="url(#bbburst-blur-3)"></use>
    <use xlink:href="#bbburst-shape-4" width="5.260318885298582" opacity="0.8577592712195529"
        transform="matrix(0.9992542620382303,0.038612430620614875,-0.038612430620614875,0.9992542620382303,385.0370274301386,57.8674505222279)"
        fill="#2c2891"></use>
    <use xlink:href="#bbburst-shape-2" width="9.360250071254868" opacity="0.7926249593376979"
        transform="matrix(0.961408687883498,0.2751242171495099,-0.2751242171495099,0.961408687883498,598.5376493744759,21.994400392244415)"
        fill="#ffbd9b"></use>
    <use xlink:href="#bbburst-shape-8" width="19.816981238396515" opacity="0.5644895309882811"
        transform="matrix(0.9871131983429414,-0.16002354094685184,0.16002354094685184,0.9871131983429414,177.49999935678244,134.38611425736417)"
        fill="none" stroke="#2c2891" filter="url(#bbburst-blur-1)"></use>
    <use xlink:href="#bbburst-shape-8" width="5.149124460924963" opacity="0.8892703447236808"
        transform="matrix(0.8488914030656391,0.5285672954328999,-0.5285672954328999,0.8488914030656391,598.4222968029236,107.72221414333075)"
        fill="none" stroke="#2c2891"></use>
    <use xlink:href="#bbburst-shape-8" width="8.437818133485539" opacity="0.8496211184069766"
        transform="matrix(0.9631546537003192,0.26894816053547993,-0.26894816053547993,0.9631546537003192,460.26738158841334,-38.44333849028811)"
        fill="none" stroke="#00a19d"></use>
    <use xlink:href="#bbburst-shape-2" width="9.235576749215724" opacity="0.8387287482719693"
        transform="matrix(0.9694348954367906,-0.24534869779450408,0.24534869779450408,0.9694348954367906,304.85646305746263,-58.82291575085293)"
        fill="#2c2891"></use>
    <use xlink:href="#bbburst-shape-8" width="30.85301222171448" opacity="0.16374823160341168"
        transform="matrix(1.2181736552903157,0.28027298399351785,-0.28027298399351785,1.2181736552903157,728.2537544705406,202.37363238125886)"
        fill="none" stroke="#ff5c58" filter="url(#bbburst-blur-3)"></use>
    <use xlink:href="#bbburst-shape-6" width="25.45943633049988" opacity="0.29072554514047655"
        transform="matrix(1.1779220823949628,0.41832949669646113,-0.41832949669646113,1.1779220823949628,869.8362884764667,-109.1430492124623)"
        fill="#2c2891" filter="url(#bbburst-blur-3)"></use>
    <use xlink:href="#bbburst-shape-2" width="11.27408237708818" opacity="0.7400180954205594"
        transform="matrix(0.9709738960953022,-0.23918547845032187,0.23918547845032187,0.9709738960953022,412.1741371539811,42.04313979867385)"
        fill="#00a19d" filter="url(#bbburst-blur-1)"></use>
    <use xlink:href="#bbburst-shape-13" width="17.001653917021528" opacity="0.6606744299803036"
        transform="matrix(0.9512035113042,-0.3085642235946362,0.3085642235946362,0.9512035113042,251.67863553511825,-129.62678583117827)"
        fill="none" stroke="#2c2891" filter="url(#bbburst-blur-1)"></use>
    <use xlink:href="#bbburst-shape-10" width="30.50731577916214" opacity="0.24754939997436542"
        transform="matrix(1.1781514952298167,-0.41768295905835945,0.41768295905835945,1.1781514952298167,357.9962263813273,242.0165141688301)"
        fill="none" stroke="#2c2891" filter="url(#bbburst-blur-3)"></use>
    <use xlink:href="#bbburst-shape-4" width="7.8746536958683375" opacity="0.7975959074139942"
        transform="matrix(0.9858896560011636,-0.16739649395942344,0.16739649395942344,0.9858896560011636,317.65623311770946,-84.04205616736596)"
        fill="#00a19d"></use>
    <use xlink:href="#bbburst-shape-7" width="4.193860631094308" opacity="0.949597258630449"
        transform="matrix(0.9993006731079037,0.03739204094577439,-0.03739204094577439,0.9993006731079037,403.4570622481044,20.845913520901718)"
        fill="#ffa6d5"></use>
    <use xlink:href="#bbburst-shape-5" width="5.403160685203973" opacity="0.9104411286621713"
        transform="matrix(0.8418083347281136,0.5397765533832312,-0.5397765533832312,0.8418083347281136,615.6841389382824,102.06785214962298)"
        fill="#2c2891"></use>
    <use xlink:href="#bbburst-shape-3" width="5.581683286485114" opacity="0.8741593888366657"
        transform="matrix(0.9955678738590789,-0.09404577895744824,0.09404577895744824,0.9955678738590789,416.1356901855707,4.942932666159379)"
        fill="#00a19d"></use>
    <use xlink:href="#bbburst-shape-8" width="6.847061969955603" opacity="0.8426085716740151"
        transform="matrix(0.9996686769418884,0.025739781297716414,-0.025739781297716414,0.9996686769418884,469.07939865272147,33.908412254679774)"
        fill="none" stroke="#ffa6d5"></use>
    <use xlink:href="#bbburst-shape-3" width="4.650247431028583" opacity="0.9022188640892981"
        transform="matrix(0.8361685127739477,-0.5484726230591682,0.5484726230591682,0.8361685127739477,165.68698345118156,24.769486872883647)"
        fill="#ff5c58"></use>
    <use xlink:href="#bbburst-shape-11" width="19.790331122082083" opacity="0.608388662832084"
        transform="matrix(0.8733078356630716,0.48716878406716646,-0.48716878406716646,0.8733078356630716,527.63989359057,-120.52415509763853)"
        fill="none" stroke="#2c2891" filter="url(#bbburst-blur-1)"></use>
    <use xlink:href="#bbburst-shape-2" width="12.62327541289164" opacity="0.6854855597192744"
        transform="matrix(0.8105651926377327,0.5856484171276783,-0.5856484171276783,0.8105651926377327,488.792681882092,53.80981604419293)"
        fill="#2c2891" filter="url(#bbburst-blur-1)"></use>
    <use xlink:href="#bbburst-shape-12" width="5.6187340827001195" opacity="0.9398352285490883"
        transform="matrix(0.8579542533578335,0.5137260935023668,-0.5137260935023668,0.8579542533578335,576.819939122288,48.79841406305792)"
        fill="none" stroke="#2c2891"></use>
    <use xlink:href="#bbburst-shape-10" width="20.77646540175407" opacity="0.5568180539684948"
        transform="matrix(0.8254853488238065,0.564423545643906,-0.564423545643906,0.8254853488238065,511.5116737472555,-105.18558231120889)"
        fill="none" stroke="#2c2891" filter="url(#bbburst-blur-1)"></use>
    <use xlink:href="#bbburst-shape-14" width="13.861021515880786" opacity="0.5666125497389272"
        transform="matrix(0.9989331084933968,0.0461805668622591,-0.0461805668622591,0.9989331084933968,594.9487876273687,66.44843853906593)"
        fill="none" stroke="#2c2891" filter="url(#bbburst-blur-1)"></use>
    <use xlink:href="#bbburst-shape-13" width="9.148431663720853" opacity="0.8553556894593857"
        transform="matrix(0.9808135151326266,-0.19494832272471832,0.19494832272471832,0.9808135151326266,361.040221927999,-39.84780014675164)"
        fill="none" stroke="#ffa6d5"></use>
    <use xlink:href="#bbburst-shape-10" width="28.25925895952281" opacity="0.39556605923084687"
        transform="matrix(0.851572337458032,-0.5242371162711238,0.5242371162711238,0.851572337458032,-49.109838308696055,-82.48180524437345)"
        fill="none" stroke="#ffa6d5" filter="url(#bbburst-blur-2)"></use>
    <use xlink:href="#bbburst-shape-6" width="3.8164281140993257" opacity="0.9196364385699771"
        transform="matrix(0.7990893967842545,-0.6012122220538904,0.6012122220538904,0.7990893967842545,137.8448193555892,111.54426220177555)"
        fill="#2c2891"></use>
    <use xlink:href="#bbburst-shape-11" width="32.37411388066272" opacity="0.31399378973681213"
        transform="matrix(1.2464065197020617,0.09471424203462775,-0.09471424203462775,1.2464065197020617,488.4145022984777,199.89030235340323)"
        fill="none" stroke="#2c2891" filter="url(#bbburst-blur-3)"></use>
    <use xlink:href="#bbburst-shape-5" width="21.867049241136005" opacity="0.3191811885438566"
        transform="matrix(1.1641627247902209,0.4552198921499461,-0.4552198921499461,1.1641627247902209,757.4381013794233,171.2009097535008)"
        fill="#00a19d" filter="url(#bbburst-blur-3)"></use>
    <use xlink:href="#bbburst-shape-4" width="9.893675591803728" opacity="0.7842184469839859"
        transform="matrix(0.7673538108001161,0.6412239305036421,-0.6412239305036421,0.7673538108001161,564.7372876082854,48.741868717933016)"
        fill="#ff5c58"></use>
    <use xlink:href="#bbburst-shape-13" width="17.55378568570405" opacity="0.5336027301129553"
        transform="matrix(0.7527624955019014,0.6582922036343358,-0.6582922036343358,0.7527624955019014,475.97443071010423,-13.577500814821633)"
        fill="none" stroke="#00a19d" filter="url(#bbburst-blur-2)"></use>
    <use xlink:href="#bbburst-shape-7" width="7.431914466452772" opacity="0.8748137608073363"
        transform="matrix(0.961330856499783,-0.2753960499742028,0.2753960499742028,0.961330856499783,240.29710915618284,-16.099560326841413)"
        fill="#2c2891"></use>
    <use xlink:href="#bbburst-shape-6" width="12.60119610494539" opacity="0.6979537137415233"
        transform="matrix(0.999411538195244,-0.03430127289498865,0.03430127289498865,0.999411538195244,515.8356314243566,4.744265034747343)"
        fill="#ff5c58" filter="url(#bbburst-blur-1)"></use>
    <use xlink:href="#bbburst-shape-5" width="29.75390833260689" opacity="0.26564923603633994"
        transform="matrix(1.2158755116708826,0.29008057521845476,-0.29008057521845476,1.2158755116708826,255.73778341749707,-315.47380459781584)"
        fill="#ffbd9b" filter="url(#bbburst-blur-3)"></use>
    <use xlink:href="#bbburst-shape-11" width="5.875613931172171" opacity="0.8611062827865309"
        transform="matrix(0.8620257167706041,0.5068645416934648,-0.5068645416934648,0.8620257167706041,541.1874852513089,74.07883825786911)"
        fill="none" stroke="#ffa6d5"></use>
    <use xlink:href="#bbburst-shape-8" width="27.499844460913963" opacity="0.38571084868025174"
        transform="matrix(0.7388923409781063,-0.6738234994743757,0.6738234994743757,0.7388923409781063,129.7381665122718,389.97738894997764)"
        fill="none" stroke="#2c2891" filter="url(#bbburst-blur-2)"></use>
    <use xlink:href="#bbburst-shape-14" width="7.836452871247001" opacity="0.9146257569230553"
        transform="matrix(0.8093800867427907,-0.5872851736458469,0.5872851736458469,0.8093800867427907,200.22616801906074,81.50285200869877)"
        fill="none" stroke="#2c2891"></use>
</svg>