<svg xmlns="http://www.w3.org/2000/svg" version="1.1" xmlns:xlink="http://www.w3.org/1999/xlink" viewBox="0 0 700 700"
    style="overflow: hidden; display: block;" width="700" height="700">
    <defs>
        <linearGradient id="two-15" x1="350" y1="-350" x2="350" y2="350" spreadMethod="pad"
            gradientUnits="userSpaceOnUse">
            <stop offset="0%" stop-color="hsl(205, 69%, 60%)" stop-opacity="1"></stop>
            <stop offset="100%" stop-color="hsl(205, 69%, 80%)" stop-opacity="1"></stop>
        </linearGradient>
    </defs>
    <g id="two-0" transform="matrix(1 0 0 1 0 0)" opacity="1">
        <path transform="matrix(1 0 0 1 350 350)" id="two-587"
            d="M 273.823445 41.272243 C 270.095072 66.808926 335.112092 76.49014 325.133848 100.29051 C 311.878937 131.906471 238.303325 76.791851 221.443032 106.641343 C 208.836485 128.959996 274.492827 156.390284 257.400771 175.492874 C 229.695513 206.457093 172.643254 104.185935 140.02759 129.926616 C 125.621328 141.296214 159.916116 171.463016 147.554889 185.027979 C 138.262936 195.224781 116.199346 174.179868 105.789015 183.231949 C 88.46243 198.297911 103.344767 229.923194 99.093827 252.486954 C 93.946397 279.809232 99.652122 318.725293 76.130242 333.548386 C 61.456264 342.795681 37.338735 336.121946 24.329204 324.650669 C -8.848225 295.396159 29.322709 200.524552 -14.720024 196.425057 C -52.694267 192.890416 -38.628869 274.803272 -68.215064 298.86972 C -82.909962 310.823065 -104.49871 314.548649 -123.441304 314.523311 C -140.569902 314.500399 -164.277609 314.769529 -173.340878 300.235206 C -192.283817 269.857337 -128.605738 218.406901 -154.263642 193.440487 C -171.117322 177.041019 -210.872698 227.363489 -224.044506 207.882921 C -246.376455 174.854876 -143.708846 144.710292 -157.248941 107.210512 C -161.959467 94.164542 -185.193345 101.507021 -197.501267 95.111597 C -209.134156 89.066932 -225.058654 83.138848 -228.726784 70.552869 C -232.453721 57.765116 -210.595633 44.895525 -215.37425 32.462444 C -223.394268 11.595837 -277.283193 22.219899 -274.83124 0 C -271.271138 -32.262091 -184.491363 5.010254 -180.302849 -27.176282 C -175.42532 -64.657541 -253.746851 -57.478004 -278.615719 -85.941568 C -292.960442 -102.359764 -318.030512 -129.514766 -304.5959 -146.685655 C -280.396127 -177.615584 -225.023338 -117.260679 -187.132711 -127.584922 C -176.294145 -130.538159 -167.055325 -139.909561 -160.948523 -149.338405 C -153.706155 -160.520551 -153.345014 -175.303869 -150.105789 -188.226706 C -145.849517 -205.207037 -154.728297 -233.278032 -138.566249 -240.003784 C -117.321739 -248.844576 -101.616112 -209.465202 -79.592464 -202.798289 C -69.00931 -199.594598 -54.561448 -194.845018 -46.095632 -201.958156 C -10.815158 -231.601475 -67.588364 -321.34025 -25.484527 -340.067372 C -7.916521 -347.881344 10.268494 -322.207909 23.071117 -307.862672 C 38.830782 -290.204093 46.062213 -265.608537 55.68822 -243.986038 C 63.115881 -227.301593 68.642437 -209.238314 75.472341 -192.30039 C 80.231625 -180.497529 78.68833 -161.467836 90.525784 -156.795259 C 108.472559 -149.711162 126.422416 -172.48414 143.962302 -180.523017 C 178.191441 -196.210911 217.646447 -252.727231 247.1155 -229.289677 C 265.995053 -214.274245 219.15242 -178.561054 231.54909 -157.867498 C 242.224178 -140.047751 285.681069 -160.424095 292.101162 -140.668506 C 300.754006 -114.042406 238.472586 -101.909837 239.708679 -73.940336 C 240.370678 -58.961071 259.137467 -50.228021 270.811016 -40.818194 C 291.207263 -24.377165 338.570559 -26.195529 338.900063 -0.000001 C 339.219914 25.428046 277.497301 16.108963 273.823445 41.272243 Z "
            fill="url(#two-15)" stroke="undefined" stroke-width="1" stroke-opacity="1" fill-opacity="1"
            visibility="visible" stroke-linecap="butt" stroke-linejoin="miter" stroke-miterlimit="4"></path>
    </g>
</svg>