<svg xmlns="http://www.w3.org/2000/svg" version="1.1" xmlns:xlink="http://www.w3.org/1999/xlink" viewBox="0 0 700 700"
    style="overflow: hidden; display: block;" width="700" height="700">
    <defs>
        <linearGradient id="two-15" x1="350" y1="-350" x2="350" y2="350" spreadMethod="pad"
            gradientUnits="userSpaceOnUse">
            <stop offset="0%" stop-color="hsl(1.4, 100%, 67%)" stop-opacity="1"></stop>
            <stop offset="100%" stop-color="hsl(167, 52%, 78%)" stop-opacity="1"></stop>
        </linearGradient>
    </defs>
    <g id="two-0" transform="matrix(1 0 0 1 0 0)" opacity="1">
        <path transform="matrix(1 0 0 1 350 350)" id="two-215"
            d="M 341.426141 39.175 C 342.188443 52.396877 334.709816 67.479747 324.063934 75.357839 C 302.825302 91.074703 269.959042 78.987346 244.906693 87.382532 C 233.528076 91.195572 216.837766 93.343114 212.922614 104.687001 C 207.684145 119.865109 226.877979 134.203098 232.326401 149.307112 C 238.540835 166.534649 246.116982 184.370876 247.780704 202.609276 C 249.210067 218.278536 257.698754 244.414157 243.008255 250.049583 C 173.058746 276.88293 137.213221 55.511248 75.038991 97.312294 C 54.902803 110.850277 120.371061 152.697797 100.317409 166.357743 C 85.391932 176.52453 75.989353 122.933679 59.385024 130.035064 C 45.000304 136.187159 58.030678 161.772121 57.644795 177.412438 C 56.824298 210.668184 88.785694 270.725852 56.372666 278.210066 C 28.377733 284.674136 27.659776 227.213037 17.216383 200.446715 C 8.0877 177.049982 21.478988 127.158103 -3.635364 127.254342 C -41.422816 127.399145 -8.498171 209.884186 -34.164305 237.617957 C -41.61806 245.672178 -55.017835 245.4805 -65.433719 248.935684 C -77.10849 252.808469 -91.437041 267.304195 -101.115463 259.712957 C -120.786381 244.284137 -74.181521 194.004029 -97.119148 184.061253 C -140.715622 165.163484 -158.939782 316.531929 -196.864284 287.904838 C -253.465009 245.180108 -76.090032 172.066373 -88.613238 102.265128 C -89.521066 97.20512 -97.687859 96.577205 -100.649336 92.375124 C -103.732845 87.999893 -101.260425 79.32585 -106.132893 77.11006 C -137.929033 62.650531 -183.615972 143.44248 -204.727841 115.615128 C -215.376917 101.578684 -174.939167 90.419235 -172.62693 72.952749 C -171.69744 65.93144 -175.785419 58.207994 -180.62419 53.036047 C -188.953858 44.132836 -204.094278 44.240611 -213.918425 37.02004 C -222.481836 30.726088 -226.956311 19.220392 -235.906396 13.489615 C -264.735266 -4.969631 -339.399745 14.741809 -334.381466 -19.120624 C -324.940195 -82.828605 -152.162474 38.998904 -139.282182 -24.103731 C -131.801468 -60.752955 -212.122754 -49.202656 -242.394942 -71.173577 C -260.943002 -84.635372 -298.161438 -101.123915 -289.397817 -122.300539 C -280.845342 -142.966947 -243.940844 -127.390791 -221.683195 -125.190258 C -196.528301 -122.703285 -160.5809 -85.509573 -147.275368 -107.001819 C -118.675151 -153.199363 -282.900817 -186.990026 -253.579959 -232.733582 C -240.940368 -252.452646 -205.910651 -224.658318 -185.195656 -213.727181 C -150.0516 -195.181943 -125.619517 -113.31772 -93.098355 -136.152004 C -54.512656 -163.244417 -183.396272 -246.617847 -142.562635 -270.186239 C -111.124515 -288.33172 -94.580909 -214.213288 -72.257008 -185.590617 C -59.656104 -169.434323 -55.203652 -129.48262 -35.609203 -135.471456 C -7.604844 -144.030692 -60.614134 -216.955235 -32.227026 -224.143887 C -15.177648 -228.461411 -22.581121 -176.40662 -5.092843 -178.27275 C 23.452549 -181.318757 8.012814 -235.964499 22.400659 -260.806147 C 32.188582 -277.705699 42.86278 -309.762764 61.794786 -304.969284 C 83.625996 -299.441741 59.934053 -252.637129 77.513306 -238.561428 C 85.567273 -232.11262 98.981991 -234.944304 108.776618 -238.187571 C 134.198184 -246.605342 152.491454 -304.243569 173.304606 -287.393419 C 219.28132 -250.171066 52.554689 -164.7723 96.6573 -125.347416 C 114.887553 -109.050749 141.109033 -180.213561 159.684249 -164.311209 C 173.690944 -152.319996 124.599771 -125.512297 137.979349 -112.825155 C 178.917765 -74.005433 261.802957 -235.309781 291.766751 -187.507106 C 324.884771 -134.672342 121.628166 -128.936144 143.392231 -70.501214 C 150.551562 -51.27893 185.07814 -75.377185 205.486716 -73.317513 C 223.34259 -71.515466 257.038259 -77.95521 258.226574 -60.048018 C 260.749981 -22.021826 145.715871 -55.068862 150.938085 -17.318533 C 158.475761 37.169801 270.007302 -29.039546 316.724534 -0.000001 C 329.704387 8.068308 340.546458 23.917204 341.426141 39.175 Z "
            fill="url(#two-15)" stroke="undefined" stroke-width="1" stroke-opacity="1" fill-opacity="1"
            visibility="visible" stroke-linecap="butt" stroke-linejoin="miter" stroke-miterlimit="4"></path>
    </g>
</svg>