<svg class="burger" xmlns="http://www.w3.org/2000/svg" version="1.1" xmlns:xlink="http://www.w3.org/1999/xlink" xmlns:svgjs="http://svgjs.com/svgjs" viewBox="0 0 24 24" width="32" height="32"><g transform="matrix(1,0,0,1,0,0)"><path d="M2.25,20.121v1.63a1.526,1.526,0,0,0,1.55,1.5H20.2a1.526,1.526,0,0,0,1.55-1.5v-1.63" fill="none" stroke="#F7F474" stroke-linecap="round" stroke-linejoin="round" stroke-width="1.5px"></path><path d="M2.25,8.388A2.245,2.245,0,1,0,5.158,11.1,5.113,5.113,0,0,0,12,11.717a5.113,5.113,0,0,0,6.842-.613A2.245,2.245,0,1,0,21.75,8.388" fill="none" stroke="#F7F474" stroke-linecap="round" stroke-linejoin="round" stroke-width="1.5px"></path><path d="M14.25.751H9.75a7.5,7.5,0,0,0-7.5,7.5h0v.137h19.5V8.251h0A7.5,7.5,0,0,0,14.25.751Z" fill="none" stroke="#F7F474" stroke-linecap="round" stroke-linejoin="round" stroke-width="1.5px"></path><path d="M12.75,20.251H3A2.25,2.25,0,0,1,.75,18h0A2.25,2.25,0,0,1,3,15.751H21A2.25,2.25,0,0,1,23.25,18h0A2.25,2.25,0,0,1,21,20.251h-.75" fill="none" stroke="#F7F474" stroke-linecap="round" stroke-linejoin="round" stroke-width="1.5px"></path><path d="M22.677,12a2.242,2.242,0,0,1,.573,1.5h0A2.25,2.25,0,0,1,21,15.751H3A2.25,2.25,0,0,1,.75,13.5h0A2.242,2.242,0,0,1,1.323,12" fill="none" stroke="#F7F474" stroke-linecap="round" stroke-linejoin="round" stroke-width="1.5px"></path><path d="M9.75 15.751L17.25 20.251 20.25 15.751" fill="none" stroke="#F7F474" stroke-linecap="round" stroke-linejoin="round" stroke-width="1.5px"></path><path d="M7.125,4.5a.375.375,0,1,1-.375.375A.374.374,0,0,1,7.125,4.5" fill="none" stroke="#F7F474" stroke-linecap="round" stroke-linejoin="round" stroke-width="1.5px"></path><path d="M11.625,3.751a.375.375,0,1,1-.375.375.374.374,0,0,1,.375-.375" fill="none" stroke="#F7F474" stroke-linecap="round" stroke-linejoin="round" stroke-width="1.5px"></path><path d="M16.125,4.5a.375.375,0,1,1-.375.375.374.374,0,0,1,.375-.375" fill="none" stroke="#F7F474" stroke-linecap="round" stroke-linejoin="round" stroke-width="1.5px"></path></g></svg>