<svg xmlns:xlink="http://www.w3.org/1999/xlink" class="h-12" xmlns="http://www.w3.org/2000/svg" viewBox="0 0 30 30" fill="currentColor" width="48"  height="48" ><path d="M24.736,6.98a4.5,4.5,0,0,0-2.994-1.972,7.023,7.023,0,0,0-2.9.076,3.922,3.922,0,0,0-1.776.952,5.73,5.73,0,0,0-1.645,3.222,3.688,3.688,0,0,0,1.2,3.462,4.007,4.007,0,0,0,.972.586c.157.069.32.133.485.188-.032.119-.065.239-.1.359-.129.487-.269.984-.437,1.465-.381-.011-.716-.026-1.023-.042l-.635-.029-1.2-4a.377.377,0,0,0-.125-.169c-.216-.288-.422-.592-.621-.887-.147-.216-.295-.432-.447-.645a.128.128,0,0,0,0-.019.4.4,0,0,0-.185-.245l-.01,0c-.148-.2-.291-.377-.428-.534a4.618,4.618,0,0,0-.675-.6.44.44,0,0,0-.348-.054.387.387,0,0,0-.231.191,1.457,1.457,0,0,0-.118.369c-.034.174-.053.372-.068.531l-.047.755a.356.356,0,0,0-.021.353l-.108,1.737a.357.357,0,0,0,.114.281c.078.455.177.908.281,1.332l.088.366c.112.467.231.948.368,1.412l-.862.07-.446.041c-.018-.041-.034-.087-.053-.141a1.12,1.12,0,0,0-.06-.126.479.479,0,0,1-.058-.14,4.349,4.349,0,0,1-.057-.793A2.44,2.44,0,0,0,10.307,13a.9.9,0,0,0-.559-.342,4.126,4.126,0,0,0-.994-.058c-.165,0-.358,0-.569.006-.411,0-.882.009-1.354.034L6.806,11.1c0-.066-.012-.165-.026-.277s-.031-.262-.035-.384c0-.027,0-.1,0-.11a.5.5,0,0,1,.14-.033l.064-.011a3.751,3.751,0,0,1,.393-.043l.113-.009a11.92,11.92,0,0,1,1.22-.045c.651.005,1.3.05,1.861.093a.386.386,0,0,0,.415-.359.391.391,0,0,0-.36-.416c-.607-.042-1.259-.081-1.913-.082a12.926,12.926,0,0,0-1.3.06l-.106.008a2.7,2.7,0,0,0-.739.133.757.757,0,0,0-.453.405,1.159,1.159,0,0,0-.05.431c0,.118.018.25.03.37s.022.21.022.276l.033,1.6c-.081.009-.164.015-.242.027a3.667,3.667,0,0,0-.917.223,1.727,1.727,0,0,0-.385.238.166.166,0,0,0-.029.034.349.349,0,0,0-.137.291.213.213,0,0,0,0,.025c.006.056.019.342.036.7.065,1.33.215,4.446.457,6.823a18.872,18.872,0,0,0,.393,2.612,1.481,1.481,0,0,0,.405.792c.644.467,4.827.586,6.6.616.963.016,1.987.024,3,.024,2.252,0,4.431-.039,5.706-.109.412-.022.742-.052.905-.08a.473.473,0,0,0,.4-.324,1.354,1.354,0,0,0,.008-.166,37.5,37.5,0,0,0,.984-5.034,28.788,28.788,0,0,0,.242-5.257.359.359,0,0,0-.716.043,28.814,28.814,0,0,1-.309,5.112c-.109.809-.241,1.595-.383,2.345-.087-1.035-.194-2.166-.3-3.087-.131-1.191-.237-1.948-.322-2.315a.815.815,0,0,0-.247-.472,2.539,2.539,0,0,0-1.015-.335l.006-.031c.042-.161.085-.32.128-.479.077-.282.151-.564.217-.848.156.012.313.031.468.031a5.549,5.549,0,0,0,1.779-.285,4.334,4.334,0,0,0,2.138-1.537,2.641,2.641,0,0,0,.354-.736,5.709,5.709,0,0,0,.222-1.086A5.281,5.281,0,0,0,24.736,6.98Zm-4.267,6.214c-.007,0-.009-.012-.016-.014a.349.349,0,0,0-.269.021c-.014.007-.017.025-.03.033a.483.483,0,0,0-.082.041.432.432,0,0,0-.164.29.391.391,0,0,0,.007.091c-.053.139-.107.276-.149.421-.091.311-.16.63-.227.938-.023.107-.05.222-.076.336-.294-.012-.575-.016-.809-.017h-.241c.081-.23.162-.481.251-.774.057-.192.112-.384.167-.577s.112-.389.173-.588a.385.385,0,0,0,.035-.077c0-.019-.01-.035-.009-.054s0-.011,0-.02a.23.23,0,0,0-.017-.062.353.353,0,0,0-.032-.136.347.347,0,0,0-.021-.09.342.342,0,0,0-.426-.174L18.3,12.7a4.161,4.161,0,0,1-.557-.226,2.929,2.929,0,0,1-.584-.39,2.885,2.885,0,0,1-.925-2.708,4.873,4.873,0,0,1,1.39-2.754,3.308,3.308,0,0,1,1.83-.821,6.443,6.443,0,0,1,2.132.057,3.655,3.655,0,0,1,2.392,1.626,4.413,4.413,0,0,1,.676,2.881,4.85,4.85,0,0,1-.181.905,1.7,1.7,0,0,1-.221.483,3.405,3.405,0,0,1-1.693,1.229A4.871,4.871,0,0,1,20.469,13.194Zm1.088,10.982c-.185.012-.442.023-.759.035-1.991.079-6.494.166-10.094.064-1.025-.029-4.143-.116-4.559-.418a1.606,1.606,0,0,1-.124-.374,18.042,18.042,0,0,1-.393-2.5c-.278-2.613-.433-6.036-.48-7.207.022,0,.044-.011.065-.018a6.826,6.826,0,0,1,1.17-.245c.631-.072,1.312-.094,1.86-.112.2-.007.382-.012.538-.02l.058,0a3.7,3.7,0,0,1,.674.01.71.71,0,0,1,.164.03,2.863,2.863,0,0,1,.242,1.587l-.005.235c0,.036-.006.068-.01.1a.959.959,0,0,0-.01.17,1.333,1.333,0,0,0,.3.737.538.538,0,0,0,.38.184,3.713,3.713,0,0,0,.608-.051l.124-.015,2.324-.215c.533-.047.994-.071,1.451-.077.52-.01.966.01,1.438.03.547.022,1.162.045,2.022.038h.115a10.611,10.611,0,0,1,1.369.044,2.39,2.39,0,0,1,.683.16c.008.022.018.046.028.069a.92.92,0,0,1,.05.148c.126.63.3,2.033.47,3.751.158,1.622.283,3.206.3,3.853ZM12.981,10.084c.124.178.248.357.37.537.1.144.2.29.3.437-.184.027-.369.058-.556.1-.307.073-.608.168-.9.26l-.093.029L12,11.484l.068-1.114Zm2.144,5.147c-.257,0-.527.005-.811.018-.134-.424-.267-.851-.39-1.291-.109-.392-.2-.8-.292-1.188-.071-.306-.143-.611-.221-.914.149-.035.3-.069.461-.093l.048,0c.047,0,.106,0,.17,0l1.046,3.463Zm-3-5.75,0-.061.015-.148.015-.147.114.07c.031.018.054.034.049.025.042.048.085.1.127.153Q12.285,9.418,12.123,9.481Zm.205,2.678.02-.015c.1-.032.211-.059.317-.09.061.318.142.631.227.935.032.115.064.229.1.344.175.657.385,1.31.6,1.959l-.024,0-.667.054c-.091-.39-.207-.78-.325-1.159-.111-.361-.227-.735-.315-1.106-.061-.257-.115-.525-.162-.8A2.48,2.48,0,0,0,12.328,12.159Z" fill="#F7F474"></path><path d="M21.167,12.81q.063,0,.126-.006A3.2,3.2,0,0,0,23.1,11.657a2.907,2.907,0,0,0,.8-2.237,3.75,3.75,0,0,0-1.2-2.26,3.34,3.34,0,0,0-2.4-.912A3.43,3.43,0,0,0,17.462,8a3.054,3.054,0,0,0,.176,3.347,3.237,3.237,0,0,0,1.543,1.186,3.812,3.812,0,0,0,1.49.234,1.358,1.358,0,0,0,.143-.015.4.4,0,0,0,.177.048A1.3,1.3,0,0,0,21.167,12.81Zm-.776-5.7a2.512,2.512,0,0,1,1.687.728,2.892,2.892,0,0,1,.913,1.7,2.029,2.029,0,0,1-.577,1.515,2.656,2.656,0,0,1-1.285.814l-.075.023c-.021.007-.041.014-.036.014a.453.453,0,0,0-.189.041l-.122-.024-.292-.036a4,4,0,0,1-.931-.183,2.354,2.354,0,0,1-1.11-.891,2.169,2.169,0,0,1-.145-2.384,2.553,2.553,0,0,1,2.1-1.315Z" fill="#F7F474"></path></svg>