<svg xmlns:xlink="http://www.w3.org/1999/xlink" class="h-12" xmlns="http://www.w3.org/2000/svg" viewBox="0 0 24 24" height="36" width="36"><title>mediaval-fantasy-paper-scroll</title><g><path d="M23.75,4.59a9.21,9.21,0,0,0-.15-1.16,6.75,6.75,0,0,0-.46-1.49A3.23,3.23,0,0,0,22.53,1,3.07,3.07,0,0,0,20.2,0c-.13,0-.25,0-.37.06C18.5.19,17.19.27,15.89.3,12.7.38,9.58.22,6.25.24A3.12,3.12,0,0,0,4,1.28,4.67,4.67,0,0,0,2.9,4.64l.31,6a.54.54,0,0,0,.29.45l1.22.56h0l-1.1.55a.46.46,0,0,0-.25.43l.38,7-1.14,0c-.75,0-1.45,0-2,0a.34.34,0,0,0-.36.32.32.32,0,0,0,.06.22A4.81,4.81,0,0,0,1,22.72a2.45,2.45,0,0,0,1.79,1.11c1,.1,2.14.16,3.29.17.82,0,1.64,0,2.45,0s1.67-.08,2.43-.1c1-.05,2-.06,2.95-.1.43,0,.86-.06,1.29-.1a2.32,2.32,0,0,0,1.11,0,3.09,3.09,0,0,0,1.81-1.37,7,7,0,0,0,.87-3.1c.1-1.52-.11-3.14-.14-4.53l-.16-5.94a.56.56,0,0,0-.34-.51L17,7.63,18.3,6.8a.56.56,0,0,0,.24-.49,17.62,17.62,0,0,1-.23-2.86,3.33,3.33,0,0,1,.44-1.64A1.85,1.85,0,0,1,20.24.88a2.19,2.19,0,0,1,1.7.69,3,3,0,0,1,.49.7,7.15,7.15,0,0,1,.44,1.33,6.06,6.06,0,0,1,.15,1c.05.55.05,1.1.06,1.65l0,.12-.11,0-2.73.07a.3.3,0,0,0-.3.3.29.29,0,0,0,.3.3h2.73a.87.87,0,0,0,.32-.06.8.8,0,0,0,.27-.18.84.84,0,0,0,.18-.28.87.87,0,0,0,.06-.32C23.76,5.72,23.78,5.15,23.75,4.59ZM13.93,23c-1,0-2-.11-2.95-.15-.52,0-1.07,0-1.63,0-1,0-2.16,0-3.25,0s-2.22,0-3.21,0a1.69,1.69,0,0,1-1.38-1A4.05,4.05,0,0,1,1,20.3c.48,0,1,0,1.6.05,1.63,0,3.5,0,4.73,0s2.61.14,3.91.16c.7,0,1.41,0,2.11-.07a5,5,0,0,0,.15,1.28,3.19,3.19,0,0,0,.6,1.19l.08.07ZM18,1.3a4.35,4.35,0,0,0-.65,2.09,17,17,0,0,0,.14,2.69h0L15.57,7.26a.57.57,0,0,0-.27.51.55.55,0,0,0,.33.48l2,.86.14,5.58c0,1.36.25,2.94.16,4.43a6,6,0,0,1-.68,2.62,1.93,1.93,0,0,1-1.13.9,1.12,1.12,0,0,1-1.19-.36,2.26,2.26,0,0,1-.48-1A5.57,5.57,0,0,1,14.32,20a.48.48,0,0,0-.15-.37.5.5,0,0,0-.39-.12,19.43,19.43,0,0,1-2.53.17c-1.29,0-2.59-.06-3.89-.07-.79,0-1.84,0-2.93,0l-.15-6.75,1.27-.58A4.31,4.31,0,0,0,6.07,12,.51.51,0,0,0,6,11.1a4.83,4.83,0,0,0-.46-.21l-1.29-.64L4.05,4.62a4,4,0,0,1,.51-2.23,2.08,2.08,0,0,1,1.72-1c2.84-.12,5.54-.11,8.26-.23C15.8,1.07,17.07,1,18.35.84A2.5,2.5,0,0,0,18,1.3Z" fill="#F7F474" fill-rule="evenodd"></path><path d="M10.46,15.43c1.16,0,2.32.14,3.48.15.4,0,.8,0,1.2,0,.93,0,.75-1,0-.93-.39,0-.79,0-1.18,0-1.16,0-2.31-.06-3.47-.07-.7,0-3.76.28-4,.28s-.36.54.1.52C7.91,15.42,9.43,15.4,10.46,15.43Z" fill="#F7F474" fill-rule="evenodd"></path><path d="M11.26,12c1,0,2.06.14,3.09.15.36,0,.71,0,1.07,0,.83,0,.66-1,0-.93-.35,0-.7.05-1.05.05-1,0-2-.06-3.07-.07-.63,0-3.35.28-3.59.28a.26.26,0,1,0,.09.52C9,12,10.35,12,11.26,12Z" fill="#F7F474" fill-rule="evenodd"></path><path d="M9.36,7.55c1.1,0,2.2.12,3.3.13.38,0,.76,0,1.14,0,.88,0,.71-.86,0-.8-.37,0-.74,0-1.12,0-1.09,0-2.19-.05-3.28-.06-.67,0-3.58.24-3.84.24s-.34.48.1.45C7,7.55,8.39,7.52,9.36,7.55Z" fill="#F7F474" fill-rule="evenodd"></path></g></svg>